<mxfile host="app.diagrams.net" modified="2024-04-21T08:58:34.666Z" agent="Mozilla/5.0 (Windows NT 10.0; Win64; x64) AppleWebKit/537.36 (KHTML, like Gecko) Chrome/123.0.0.0 Safari/537.36" etag="WOM04QMxHWbK57XAiCHM" version="24.0.7" type="device">
  <diagram name="Page-1" id="uB8mn3kmTDU6JDxMc4O6">
    <mxGraphModel dx="2093" dy="2065" grid="1" gridSize="10" guides="1" tooltips="1" connect="1" arrows="1" fold="1" page="1" pageScale="1" pageWidth="850" pageHeight="1100" math="0" shadow="0">
      <root>
        <mxCell id="0" />
        <mxCell id="1" parent="0" />
        <mxCell id="bxsf5tEdpp9Sxr3jbm2m-1" value="Kubernetes Cluster&#xa;" style="swimlane;startSize=0;" vertex="1" parent="1">
          <mxGeometry x="360" y="10" width="1270" height="740" as="geometry" />
        </mxCell>
        <mxCell id="bxsf5tEdpp9Sxr3jbm2m-2" value="" style="shape=image;verticalLabelPosition=bottom;labelBackgroundColor=default;verticalAlign=top;aspect=fixed;imageAspect=0;image=data:image/png,iVBORw0KGgoAAAANSUhEUgAAAgAAAAIACAYAAAD0eNT6AAAACXBIWXMAATr1AAE69QGXCHZXAAAAGXRFWHRTb2Z0d2FyZQB3d3cuaW5rc2NhcGUub3Jnm+48GgAAIABJREFUeJzs3XmcHGWdP/DP96nq6u45eq5cMyEXIYQkhDMIuZBADg5RURNUSEgCBAi5YBXZXd0dXXd/ukoOTgnkILC6m6yuuqssMRpXcqCikdwgBIi5576nu6ue7++PSTCEHDM91fVUdT3v14sXx8z082HSXc+3nnoOgqZpOWnSsoYhYBpGwFBieSEDFwIoASi/4+/IP/6tLQDqAGoGZD0BbzHEm0x4S0je/crDRW8r+5/QNC1rSHUATdPcMXFJ/fkG4QYwTWDCBDD6uPTSh0HYyEwbGfJXGx4q3ufS62qappAuADQtwG55ur4kncRUgGYAGAMPPtPM2C0Er+G0sWr9lwuPZbs9TdOyQxcAmhZANy5pHC1JfhlMnwAQURQjBeKfSYf+dcPfFL2mKIOmaRnSBYCmBcjEZY3jhMNfAeETqrOcYjOYvr3+4cR/qw6iaVrn6AJA0wJg8rKmiyGdpwC6VnWWsyLaaAia9/KCwt2qo2iadna6ANA0H7v12UN5ydb8RwD8LQBLdZ5OssF4OpZOffWnX+nZpDqMpmmnpwsATfOpG5fUXSdhvAjweaqzZGg/SExfv6jwN6qDaJr2UboA0DS/YaYpyxoeYaZ/BmCojtNNDoBvFvVN/NO6aeSoDqNp2l/pAkDTfGTyd5p6weQfAHy96iwu+0XKoS/++kuJatVBNE3roAsATfOJG5fUDWSIV47v2JeL9hFjit5ZUNP8QagOoGkaMGVx0wgJ2pTDnT8AnM8Cr05aUneZ6iCapukRAE1TbuJjDdcIgZcBFKvO4pF6EG5cv6jot6qDaFqY6QJA0xS66fGm4Y4jXwVQqjqLx2okxPgNDxXuUR1E08JKPwLQNEVuerzmPMeRLyN8nT8AlAk4v7j5u3UDVAfRtLDSBYCmKTDxW7VFjjR/AaC/6izqUF/bED/75LerClUn0bQw0gWApikgYsbTYFykOocPjGizrOdVh9C0MNIFgKZ5bPLihrlgfFF1Dr8gYNrkJfVzVOfQtLDRkwA1zUOTltRdRiS2ghFTncVfuE2yefWGhwt2qE6iaWGhRwA0zSOVlSwI4lnd+Z8OxQU5KysrWV+TNM0j+sOmaR7ZWtw4F8DHVOfwsVGbixvuVR1C08JCPwLQNA/csLS5t8HOXoRns59M1cEWF63/cuEx1UE0LdfpEQBN84DJ9jehO//OKOGI/LrqEJoWBnoEQNOybPJjNf0gzLcBWKqzBERKCmfIhoWl+1UH0bRcpkcANC3LmMxHoDv/rrCENB5SHULTcp0eAdC0LOp49m+/C1BcdZaAaYUtBum5AJqWPXoEQNOyyGD7Ht35ZyQPpnO36hCalst0AaBp2UR0p+oIwUXTVSfQtFymCwBNy5KJjzVco/f775ZhkxbXj1IdQtNylS4ANC1LhAF9B9tNpEcBNC1rdAGgadnC9EnVEQKP8GnVETQtV+kCQNOy4IbHGi8E+DzVOXJA/4lL6s9XHULTcpEuADQtC0yS16vOkCsIQv8uNS0LdAGgaVkgiSaozpAriFj/LjUtC3QBoGlZQIyrVGfIGYyrVUfQtFykCwBNc9l1lRwDob/qHDlk4HWVHFMdQtNyjS4ANM1lZqJlCABDdY4cYsRLm/VEQE1zmT4LQNNcMnMjx0Q0Pa25yq6s35cepDpPLik+3zqQ19P4bl4ysuLpCdSsOo+m5QJdAGhaN814tf1CU9BsBt0LoLT5sI2Gv6RVx8opRf0jKOhjAkAjgH9n4idXj4nuUBxL0wJNFwCaloGpa9nIL0/eTCQWgHADTvosNR200XhQFwBuKuwbQaKv+aH/RoQ/AHjctCI/WD6K9C9c07pIFwCa1gVzfsPlKcOeQeC5wOkn+jXsT6P5iO1xstxW0MdEUf/I6b/IfIQILxDkMyvGxt/3NpmmBZcuADStE2ZvSo8DYQGDPw3gDD1Rh/p9KbRUOx4lC4e8niZKBp311w4AEoxfMcvHV4+L/g+I2ItsmhZUugDQtDO44zVORGX688yYD+Dizv5c7TsptNXoAsBN8TIDpYOtrvzInxm0Qprm82uuppps5dK0INMFgKadYtbW1BWQuA+MO0DI7+rP1+1LoVWPALgqv4eB4vO7VACckCTQT5mwdNWYyBa3c2lakOkCQNMAzP85R5uKU58kSXNAmNid16p/L42WY3oOgJsKepsoGnDORwBndXzS4HLTiry0fBS1upNM04JLFwBaqN21uX2wAbqXQXcD6OHGazYesNF0SE9Kd1NhRQSJ88xzf2PnNAD4Dzi8bNW10d1uvaimBY0uALTQqWQW+1+zr4fEHAZ/Bi7v2td0KI3GA3oEwE1F/UwUlHdvBOA0OiYNCl4+MGn9V+UE0n9oWqjoAkALjXte4962Y88k8P0ABmarndYqB3XvprL18qFUcr6FvB7Z3F2ZDhHki8Jwnnz+mrwDWWxI03xDFwBazrvr1dSVQmAOgOkA4tluL9UsUbU7me1mQqXniCisfE+OLkkR6CcQWL7yGvOXeimhlst0AaDlpNmbuBAi/QVmzAVwqZdtS5tx+I/tXjaZ8yqujIEMzy9XbzJoVUqay78/nuq8blzTsk0XAFpOmb2pfSiIZgE0h4ESVTkO/7Ed0tY3j24QEUL55UpPA24C8AOSeHrleOsNlUE0zU26ANACb+outvIbUp86voTvQ/vyq1K9N4Vko94LwA3RIgM9hma0B4DrTiwlbELkxXVjqE11Hk3rDuUXSk3L1OxNLRWSrOkEzAP4PNV5TtZ4MI2mg3pSuRsS55korHB9BUB3HSPwKink91aPjr+nOoymZUIXAFqgnLKE7zYAri0Od1OqSaJqj54I6Iaew6OwCjyZAJiJD5YSthywfrRuGulhHy0wdAGgBcKc17nITqVvZ2AhGMNV5zkXZuDIH9ohpZ4H0B1kEMqviIGCcaV6h0HPWSlzxfIJVK06jKadSzA+VlponbSE704AearzdEXtW0m01UvVMQItViJQNiSqOkZXJQn0UwgsXzk6skF1GE07E10AaL4zcyPHEE3dSkyLAIxRnSdTbbUOat/WGwJ1R9kQC7GSbG4AlHV/JMKz6abIv704hVpUh9G0k+kCQPONma+1DxEO3c2gewCUqc7TXSyBI9vaIR39GCATARv+P5dGAP8uwE+sGBvdqTqMpgG6ANAUOzGpj6VcCNAtyLH3ZN27abRW6dUAmcjvZaJ4oO9m/3cbMTZLwcssy/rx8lGkT43SlMmpi60WHDN/x32Qtu8i8AMABqjOky3pFolju/RqgEz0ujiKSJ5vZ/93G4MPC2CNzfLpNePi+1Xn0cJHFwCap+56NXWlIbCQgc8DyL3bu9PQmwJ1XazIQJlPNv/xgAPwyyTEMn3+gOYlXQBoWXfHa5yIyvTnmTEPwEjVebyWbJSo3qtHAbqix/Aoov5d+581BLwlQSsNMp9bMYZqVefRcpsuAHzkhicbyyJpXMiMXkxcAHA+0Yn97KlFMjWDZIvBXAXgvWsaivdXVpJv15ndszU5zJF0P4DZAApU51GpencSyWbf/lH5ilVooOew0Nz9n0k7AeuIsGTFGGub6jBnUlnJYktZwwBK8UBpUA8hRQEE5wOcDwDMqAOohZiaiXAsHcFbv5yXqFGdW+ugCwBFpixpKWfY1wN0LZgvBmEoujrzndAOprcAvEXgzZBy4+im4h0qi4JT9uWfqCqH36RbJI7tTgJ6cPfsCOg5zNc7/3nuxPkDphV5afkoalWVo7KSxeai+kuIxQQQjQFwIYgvBKNLJzURUM3AmwDtIub/A5kbX3ko/3CWYmtnoQsAD924pHG0BH8BhElgXJSNNjo+XPRrMP+wCYmfbH3YmwNLZmxp7WuycS+D5gLo6UWbQVO/L4WWaj0X4Gxydea/S+oBrCEpl60cH9vnRYOjF3M8gcbbGPQZEF+H7C3P3QPGLyTjBxv+pui1LLWhnUIXAFk2cVltf5LGXQRMBzDE4+YbwPyfEMaa9YsKf+P2i5+yL/9nAAR6x5Zskzbj2PYkHH1M8GkJk9DrkigMU1+WzuGD8wcGJq3/qpxArq8znbS46eNEzgyAPgcg4fbrnw0BbzHhRUnOmg0LS/XqiCzSn7Qsuenx+sGOIx4BeDZ8cWANvUHEixMViX/r7oElMzdyMaLpuwAsJMYglwKGQmuVg7p39e6Ap1NyvoW8HrqG7Bo6SJDPp2E9/eJYOtatl2KmyUuaPgHirwL4mDv5ukUS6IcO6B83PFS4R3WYXKQLAJdNWdw0gsFfB/FtAHz4IJN3EuOfXnm4eG1Xf/KkffmnA4i7ny0c6t5JobVGPwo4WbzMQOng0E/8644UgX6S0fkDzDR5SePtDHyNyJcHbelCIEt0AeCSW589lJdszX8EwN8CCMCVjP+P2HjwlYcLd53tu2Zu5JiIpqcx4yEAl3kULqdJyajalYTdph8FAIAZI/QaEQUZ+nLkkr1M+F5eMrLi6QnUfLZvvOGxxgsNwU8CmORRtu5Ig/FMLJ366k+/0rNJdZhcoD9xLpi0uPE2Il4GoJ/qLF2UAtHiJln4jVMnC854tf1CU9BsBt0LoFRRvpyVbpWo2p0Eh3xlIAlCz+FRRPL0pSgLmgD8wDH4qTXXRLef/IXRizmeoIZKBj2E4G3ItZ+YFrzycOInqoMEnf7UdcN1lRyzEo3fBmGB6izdtAdCTCsqL9iTX568mUgsAOEG6PdHVrXXS9T+OQkO8UBA6QVRxEt9+KQsxxxfSvi4aUV+sH9T0/mSsRbgS1Tn6g4GXozltdz/3/dVKFsaGXT6Ap+hG5c2DpWM/wD4UtVZ3ECEdKK/1VTQ29B3+x5qq3ZQuy+ckwJLBlnI66kn/XmptcppqH8vHWfmADymPDdm7BYQ0871KFM7PV0AZGDy0sZPgPkHyMHd7fJ7mSgeENHvDA81HUqj8UC4Tgws6meioDxoI8/BVv9eGi3HcvJ91gTg9vUPFb2sOkjQ6Mt8F01a2nAnMVYieM/NOi1WIlA6OArSI7OeaTlqo35/OhQ7BSb6R1DYxwcrY8NCArX7UmirzemVJzZA961/KLFSdZAg0Zf4Lpi0uGEhMV5ADnf+ANBeJ1HzVgrshKA38on83iZKzrdAuVySC6BksKU7fw9Jyaj5c853/gBgAvz8pCWNj6gOEiS5fLlx1aQljY8Q+Nuqc3jJKhDoMdTSy7M81N7goO7tNGSOFV9kEMqGRBBN6Gf+XmEJVL+ZRKopXEtNiOlLrzyceEx1jiDQV/ZOOD7svwYh/H3Fig2UDsnxO1Ofsdvlzuq9yTwnhfNVZ3GDYdI7ZcOshkhcXKE6S5jUvp1EW224Ov/jmJjufuXhxCrVQfxOPwI4h8lLGz9BjFUIYecPAO31eutajyQJtI4ETXrxhtjItqrEUAZ9G8GeFcBgPF5QUzj8pYmxK6XEKADLAehlW1lW924qrJ0/ABATPzvpsYabVQfxu1B2ap01aVnDEJL4A4BC1VlUK+ofQYF+dpsN7zDoOStlrlg+gapP/eLkJfXXg+ipbJ0emS3M2G2QfPB/Hyr59alfm/M6F9mp9O0MLAT7cuvZQGs6bKPxL2nVMfygGQ5dtf5Lib2qg/iVLgDO4LpKjllFjVuht78FABABPfQ57W754DS3lgPWj851ONOVz3KkwmpZnm6UM6X094AACYJVSOvs5oLpLy+g5Nm+95TTJG+DLw7NCrZUs0TV3iQQ2pv/U/GOJi662qtj0YNGf+DOIFrU8ASDdOd/HDNQ+3YKvS6OQujjWjN1lMCrpZDfWz06/l5nf+gP91F65Jbkz2USM5sP22ipsn23hTAJIK+nicJyEyKKdavHnL3zB4BKIglgA4ANsze1VEiyphMwD+Dzsp8497DDqH0npTv/D6GRhdT4GIC5qpP4kb6Sn8bxvf1/pDqHH+lT27ru+Dasy2Uysmb1BGrP5DVmbklOJaa1ACDTjOZjDlqO2pC22hEBEoT8ngYKKiIwji+OZeJpq8dE12XyelN3sZXfkPoUSZqjt6Pumtq3Q7HcLyNM9KlfLEr8VHUOv9EfrlPc+uyhvPbW/N0EDFCdxa/KhlqIFenlXOdwxoNYMnFyAXACy45Jmq3VDtrrPbzwU8cS0bwyA3llxkeWiXanADjZ7E3tQ0E0C6A5DJR09/VyWXuDg5o39WTds9gPu234+i/3aVEdxE/0I4BTJFvzvq47/7NreD+N6MWG3inw9PYyaHVKmsu/P57qstkQCSBeaiBeasBJMdpqHCQbJVJNEm7PFRCCYBUKRIsE4qUGDCv79w4rx8XeBPDo7E38zyTSX2DGXAA5cfaGm5g7PpPaWfWHmff3AP5OdRA/0SMAJ5myuGkEk9yGHN/pzw2J80wUVuhf03EpAv0EAstXXmP+EkSuj8ufbgTgTJiBdLNEqtlBuo1htzHS7dzpnR3JIETiBDPW8Xer0EAkX3R6Lwi3RgBO565XU1cKgTkApgOIZ6ONoGk6mEbjwZzc499tKTh0qV4V8Fd6BOAkkpxvEEj3ap3QdNhBQW8z5LsE0iGCfNEm54k1Y/IOqk5zAhFgFQpYhR8eopE2Q9oAS+74Z9nxZycEQ5gEEgRhwteTPF8Yb/0BwH3TN/PXDNizQHwfMQapzqWKtBlNR/Rz/06yYHAlgM+rDuIXehD3uMnfbbyIQJ9WnSMo2GE0HQnlXYcEYwMTTxuQMgesHBt91E+d/9kI8/hdfZ5ANGEgXiwQL+7450iegBkjX3f+J3txLB1bPTby7YGjIxeQoEkEWgcgdD1h81FHn9nRNZ+7cWnjUNUh/EKPABzHBv8d6YKoS1qOOijsE5pRgHoAa0jKZSvHx/apDqN1OHkp4YwtrX1NNu5l0FwAPRVHyzp2GK1HQ1mEd4fBzI8CmKU6iB/oDg/Azd+tG0DAF1TnCBppM1qqcv6m6zUGZnAqUr5qrLVQd/7+tWZM3sGVY6OVnIr0Z2AGgNdUZ8qmlmMOHMXLQIOIgTsmP1bTT3UOP9AjAAAcU9wF1r+LTLRU2bm4RXA7AeuIsGTFGGub6jBa1xzfa+FFAC/eszU5zJF0P4DZAArUJnNXa7W++89QhMmYDuBfVAdRTY8AAGDGF1VnCCq7jZFuzY2txwh4i0GPCor0XTnWmqE7/+B7fnR0z6qx1sKUEelLhPsA7FCdyQ2pFol0m777z5Qgukt1Bj/IuVu3rrpxSeNoCdaTQrqhtdpBUf/A1pIOwC+TEMuytYRPU+/frqFGdJxEuPyuV1NXGgILuWM2eCBX/bRV5/yjt6xi4MIblzZc9b+Lin6vOotKgb1qu0WC9bP/bmqrCd7FiMGHCfxth53zV42N3rpydGSD7vzD4YXx1h9WjrVmcCTSn0GPAnhfdaYuYaBVb/nbbVKP/OoRAACTVQcIOifNSLcyInn+Xw1AjM1S8DLLsn68fBTp7dNCbPXH6AiAb1cyf2f/a/b1LOVCgG6BzzdIS7VKyLSuVbuPJ6pOoFqoC4ApS1rKGbYe/ndBstFBJM+3b6cGAP8hmR9/YVx0l+owmr+cvJTw7i3tFzDTPQy6B0CZ4minlWrMjTk36tGIm/+1uc/PHyk4ojqJKqF+BMCwr1edIVckm/w3JEmEPxDhPrs50nfVWOs+3flr57JiTOztlWOjjxY0RPoy8TRibFad6VTJJl0AuIRs07lOdQiVfHvL5g26FtBDaW5INfrm95gk0E8hsHzl6MgG1WG0YHriZkoCWAdg3UnnD9wJIE9tMl0AuIkFPg7g31XnUCXcBQDzxf5+2hcc0mE4KcCwlEV4h0HPWSlzxfIJVK0shZZzTpw/MOd1fsROpW9nYCEYw1VkcVKdP9RJOzdijFCdQaVwFwAE/fzfRXa7A8MyvGxSgvErFry85YD1o3XTyH/PIbScsXwUNQBYDubnZr9m3wCJOQy+DR5eR+12fffvslD3AaEtAKYsbihln07yCSq7nRFNeNLUUQKvlkJ+b/Xo+HuetKhpJxDxyuOTBmdvaqmQZE0n8IMAsr69rN2u7/5d1mvK4obSVx4uqlUdRIXQFgBENJT1839XZfviRIQ/AFguk5E1qzq2e9U0pVaOyz8E4NtTd/GS/IbUp0jSHBBuQJaWEurd/9zHAkMA/FZ1DhVCWwAwo5d+/u+uLB1M0gTgB47BT625Jro9Gw1oWnetG0EpHJ80OHtT+1AQzWLQvQBK3WxHr//PBsr5kyPPJLQFgBRcqPd9cxe7WwDsZcL38pKRFU9PoGY3X1jTsmnluNibAB6duZErRTQ9jRkPAbjMjddmPcvFdSTZmweXPhTaAoCYC32+4VfgcPfnJ6UI9BO9hE/LBcdPJVwDYM1JSwmnA4hn+pos9V2L26TgQtUZVAltAQASBWD9YXKTzPjuhA4S5PNpWE+/OJaOuZlJ0/zgxFLCmRv5K4im7wKwkBiDuvo6LhTZ2imIhS4AQoelqUcA3NXFeuqDJXwDk5H/qpxA+nBzLeetnkD1AJZVMj+x/zX7+uNLCT8DoFPrZ1nftGSBDOSJkG4IbwEA/VzZbaJzWwDUA1hDUi5bOT62L7uJwo1MGyQYIPnBQYckZMfaF8Ef/DdmAiSBALAUf/1vLMCSwHaILxNZcvL5AzO2tPY12biXQXMBnHVCGgmC3r3UXQxqVJ1BldB+shnURPqD5CoyzjyicmIJn2lFXlo+ilq9S5VjiCEiaZCVhoikIUwbMG0IQ4IMBzBs0Il/dhE7BtgRgGOCHQPSEYBtQtomOBWBTHf8Bdajal21ZkzeQQCVU3fxv5y0lPC0J9WJs3zGtMwIQpPqDKqEtgAQJJtYX6xcJT56tFQ7AeuIsGTFGGubgkiBtahuz0DblpcIkiMBGi7lu6PAHXf1KpDhHC8qOk5QPtNgD9smmPBPC6p3fprBuyBoh0HGjqUlw97zKmtQnbyU8J6tyWGOpPsBzAZQcOJ7KNTHt2WHlKQLgLCRhHq9DNBdJ0YACHhLglYaZD63YgyFcoetzqrkjWZNTa8rWMgrSIpLQHwJQBc70ikiAfDxeSpkBGOKBJk2CBjKwFCAAAYcdjC/ZlcDwDvAtAMCbwjJfywpq9pWSROC8T/msedHR/cAWHjHa/y1qEx/nhnzAIzs5GM2rQsEO/WqM6gS2lvgG5fUDZQQ76rOkUsK+ph7igdaC1ZeY/7ygwfM2oc8UrW3sI3k1UTOODBdyUTjAS5SnUuRVgDbwNgEgc3SNLY8lRhWozqUX931aurKpr+kn2s+al+uOktOkXb/9X9T9hfVMVQIbQFQWcliS1FDM0AZr8nVPoyYPv3Kw4mfqM7hJ3OP7SoQhOsF8RQmvhag4QD0QO7pSYB2gfg3Evy/8ZTc+N0+l7aoDuUnNy6p+4yE+KHqHDmkdUxDorCykkK5wDK0BQAATF5Svx2gkapz5AyHhq3/UmKv6hiqPVS//XxHGhMh+VYGJoEQVZ0poGwAvwXhv8mRGx7vMfKPYR9ZmrK4aQST3Kk6Rw750/qHikI7ohLaOQAAQBB7GawLAHfYRc2FoVzWN5XXGr1rRnxcAFOZ+GbbQX+AQ15eu8IEMBaMsSwE5tfueh/Vu37OLNce7bHn1XU0LXQb4wqz4G3HabQR8mu3i95UHUClUF+iJi9ueAiExapz5Iit6x8qGqM6hFcqmUVd3e4xkjEV4KkAylVnCpkaEP0c4HVlJVUvh2ky4aQlDb8j4CrVOXICYeH6RUWPq46hSqirSCa5kfTjWLf8SnUAL8yv2X0NwF+oqd31OQAVqvOEWBmYpwOYXl3b6+CCml3/yYzvP9FjxO9UB8s++hXAugBwA4lQXLfOJNQjAGCmKUsbjzHQQ3WUoCs+3/rZ2k/Gbs3FZ7Rzal8viiF+OzPPBXCp6jzamTGwhwgvWGZkxWOJodWq87iOmab+tO2/GvalP6U6Sg44tn5Rok8uXrM6K9y3v0TMoF+rjhF0JIC8UuOWWVvS30MO7a60oGr7lfNqdj4b5dghZn4WuvP3PQKGgfGtVCp9YEHNzrXzq3dPzJn3JDPN3pJell9ifCrkV253EH4V5s4fCPkjAABg8I8I+JzqHEEWKzJO7FA2Z9aWNFYx3x/UD9YjVXsLW0V6NkE8wOChudFzhBAhysBUkJw6v3bXXlTveMaRYuXTvUYE8wyQ450/A/PJIMQTAm31oVy55h7m0C+nDP317bpKjllFjYcBFKvOElRlQ6KIlXzolmT5qjGRQBUBc4/t6mMa8n4GzQdQqjqPlhWNAK0G7O88UXbpAdVhOu2kzv/Ef2qrdVD7dkplqqBraOJE+daHqU11EJVCXwAAwOTF9c+D6G7VOYJImIQ+l8dAH30nBaIIWFi74xKH6UECZgCIqc6jeSIFov9gON95svSSHarDnNVpOn8AgAQO/6kd0vb1x8vHaPn6hxL3qU6hmn6SBADCWKM6QlDFy4zTdf5Ax+MA384JWFi7a9yCml3rJdMbBMyB7vzDxALzdGLxxvyanS8/WLN9tOpAp3Wmzh8ABBAv1QcDZEoKvKg6gx/48uKsgl5bm5nel8Rgxs76NvLVSMDC2h2XMNNXGZiqOovmJ7xBMP3dsh4X/151EgBn7/yPs9sZR7e3e5kqV/xu/UNFV6sO4Qd6BOAEpv+nOkLQxHsY5+r8AZ+MBCyo3X3xgpqdayXTn3Tnr30UTZSE382v2fGLB6t2X6E0Sic6fwAwY6RHATLB9E3VEfxCjwCcwEyTlza8oc8G6LxeF8cQyev0W0jJSMC86u0XEYl/AvBZ6Pe71jkSoHVSin94quewtzxtuZOd/wnpVoljO5PZTpVD6I31iwov98uIpGp6BOAEIiaGrgw7KV5qdKXzBzweCVhUt614fvXObxGJN9CxzFN3/lpnCYBvF8LZOb9m17JFddu8WSHUxc4fACJ5AvFSfRnvLAHnG7rz/yt9UTzF5CWNvwT4etU5/IwEoffIKIxoRm+frI4EVDKLmppdd4KsmZzjAAAgAElEQVTwHQC9stGGFjq1DP7G0dI9T2btAKIMOv8TnBTj6PYkWOp+7Rw2rH+oaJLqEH6iS8dTOBIPANBjamdRWGFk2vkDWRwJmFe96/qa2l3bQHgBuvPX3FNKoKW9a4fvWFCz60bXX70bnT8AGBahsELPBTiHFBzK6Peby/QIwGlMXtr4/8D8qOocfmTGCL1Gnnbdf1e5NhIwr2pvBYTzJIFv63YqTTsHAtYJKRYu7Tn8cLdfrJud/wckcHRXO+w2PQpwWoxvrn+46GuqY/iNHgE4jVR94dcB/El1Dr8hAkrOt9zo/AE3RgKYaX71zhkk7B2689e8wsBUR/CeeTU7FlYyZ34NdavzBwABlAyy9BX9tHhHExL/ojqFH+kRgDOYtKxhiGDaycyW6ix+UdQ/goI+rh8fkdFIwPz6HYPh0LMAbnA7kKZ1wavMcs6TPS7Z26WfcrPzP0nTERuN+9NuvmSgEVGKbVy6/kuJrv35hISuF89g0NjEe8WDzBbVOfwiVmxko/MHujgSUMkbzXk1OxbCoTegO39NvfFExh8X1OyorORdnbtZyFLnDwCFfcxTz+UItaKBRtvA6wrfUZ3Dr/Q75QzS7anP5PUwS/J7hf7ARETihNLBkWw20akiYFH1jmE1dT1+S6ClAPKzGUjTOo/jDPrHmlrevLDqjaFn/9bsdf4nlAyyOrNBV84r6GMiv2ekyG5P6ceDZ6ALgDMhegAAigdEQr3blmEBZRdGQUbWLyhnLQLmV++c4RD9Hkxqd2nTtDMbJYW5bV7NjoWn/aoHnT/QcUBXj4uiMKzwFgHxMgNF/TpuWlh0XMu1jwrvO+Qs7tmaHOZI2oUTvx8J1Pw5hfaG7CwB9quOC4mFSJ6ndeKH5gTMb/pjT6St58H4pJchNK1biH9smda9jyWGVgPwrPM/md3GqNqTDN2JgdGEgbKhH56sLMAjV4yN7lSXyp/0CMBp2A49iJOLIwGUXhCBVRieXxcZhLILPe/8gZNGAh6s2TEJKetPuvPXAofp06l0eueC2t03q+j8AcCMd3yGPRi9841oQqBsSOQjK5UkUeiP/j2d8LwzOmnuRi5os9IHABSd+jVmoO6dFNpqc3skwIgQyoYq6fw7ECNefmiHkWi5GPo9qgUbO40F29oOl18BRedh2W2M6jeTcFK5PRIQKxEoHRwFnf6y1UQc6btyHDV5HMvXwnNL20ntkfSdOE3nD3Ssgy+9wEIuTww044SeI6LKOn8ybcT7HYSRaBkJ3flrwUdGovmKeL8DIMNWEsCME3oOi+b0xMD8HgZKLzhj5w8AhSzSX/QwUiDoAuAUTJhzru8pHhhBUf9Izv32YiUCvYarmzwkYu2ID9gPI69VSfuali1GXhvig/bDiLeraT9K6Dk8ilhxjk1oFh37kxR3YoMylpjrTajgyN2SMAOzN6XHMfGrnf3+VItE3dsp2MlgD60RAQUVESQqTGXviEhxA6zex/RBXVpuk4RkVQ+k60qURWg+YqPhQBqQyiK4wrAIpRdYsAo6fycmBY17YXRkcxZjBUqO3cN2D4O7tFzEyhfodXEU8bLgVtVmnNBjWBSJvoo6f2JEy48g2ueo7vy13CcY0d5ViJYfBYSa93tBHxM9Lwr2I4F4DwO9Rka71PkDAMmuXeNzXXDfAS6bs5F7pK30XwDEMvn5VJODunfTsNuD0YmRIBSUmyisMN3a27/rGQwHsb6HYOS1qQmgaQrJtjjaDpaDbTVzipiBlqM2mg7YkAE5StiMEYoGRBAryvimK2Uj0u/FsXTMzVxBpUcAjrOj9j3IsPMHAKvQQK+RMSTOM32/7CZeaqD3JR13/ao6f2GlER/wF935a6El4m2I9/8LhKVm736ijtGAXiOjvt8+WJiExHkmel8c607nDwBWhOzZbuUKOn/3VB6pZBbvbU2/TYxBbrweO4yWKgdNR2xIvyy9ISBWZCDR10QkX+2H3Yi3I9b3EMhUMyta0/yEHQPtByvgtMaV5ki3MZoOp9Fe44B9ctkyTEJebxOFfQw3b6z2Nx+MnL9uGuX2eu5O0AUAgJmvtt9KQvzU7deVktF6zEFrlY20onO6hUnIKzOQ39v0xTM/o7AZsYojIAr4DCRNc5MktB/pA7uxUHUS2O2M5qM22mocZbsIRvIIeT1M5Pd0teP/KxK3rhpj/o/7LxwsubugvQvIoAeQhfe5EISCPiYK+phItUi01Thoq3HgpLP7oSIBRIsE8ntEECsSvnnQY5XWwupVrTqGpvmPYMQqDiNp2EpXCAAdz9mLB0RQ3C+CtnqJ1po0kvUy66MCRgSIl5nI62Fkfx8Sdh4AEPoCQP0toWJ3b24bIGG8A8Czqfx2kpFscJBslEg2SjeqbAfAnxi0obi/OTy/p3Gr3+YhWGW1sHrqzl/TziVVU4pUVQ/VMT6EJdBaL39av699KyTdAOBaAJ07/vgMhCBECgViCUK0yINO/8OkYTsXPP/x+LteNuo3oR8BkBBz4WHnDwBmlGD2MpHfq+PfnRTDbpew2xl2O8NJM9gBpNMxnwDouKsXBoGMjmF9EtjedNipZKK9JQ0F76yrpBQAgJlmbUkvBbDAy/+ns4n2qkKktE51DE0LBKusFgQg6aMigASWr/1E9H5QjAF8a2olW3VFzYOJ+aJEH/F1yTRS2ieuWww+/oSPDIIwADI6thg3Yyf+EqpPKxTSFPcBeFRlCNX8dZvosfk/52hzUXo/gF6qs3QVS5qwenzk16f/on+KgGjvKkRKdOevaV2Vri9C8khv1TGAU07oPNXsTekJTPwrr0O5oJpTkX6rJ5Ca7Rl9wCdPh9VoKkpPQwA7fwB7Vo8z/++MXyXiVWMiiwA87l2kUzMwYuVHdOevaRmKFDcgVnEYULtB1lk7fwBYOS6yEUAQj9rtQVbqc6pDqBTqAoCAYO4KxXj6nNvmqSwCiBErPwyzqNHzpjUtl5iJJsTKj6gqAs7Z+Z/AwHIvArmPgtkHuCS0BcDsV1OXAhitOkcGmiOxyIud+k5FRUCs9zGYiWYvm9S0nNVRBBz1utlOd/4AIDiyGkAQj9odM2tr6grVIVQJbQEAgQdVR8gI49+Wj6KGTn+/x0VAtPcxmMWdj6dp2rmZiUZEe3u2e22XOn8AWDmOmgD8IIuZskfiPtURVAllATDndS5iRjDPhjYyGGrzqAiI9qxGpKQ+m01oWmhFSuoR7V2V7Wa63PmfQBJPZyOQB+784qusdvMFRUJZAKST6btAyFedIwNbVo22/pjRT2a5CLB61CBSVpuNl9Y07bhISR0iZTXZevmMO38AWDneegPAVpczeSHPEuk7VYdQIZQFAIA5qgNkhp/p1o9nqQiwSmth9cjaRUnTtJNEe9ZkY3VNtzr/Exjo3jVKEQIeAHPolsWHrgCYtTl9PYARqnNkoJpT1n92+1VcLgLMwma9va+meSzauwpmwrU5d650/gBQ2BBZCyCIR+0Om73Zvk51CK+FrgBAQJf+MfPzrm1Y4VIRIGLtiFUccSWSpmldEys/AiPe7eO0Xev8AeCJmylJ4FVuvJbnKJh9Q3eEqgCY8xsuB/hTqnNkQJqOdHedbTeLAGGlEe93CNCn+mmaGsSI9T0EEUln+gqudv4fxIJ8Bh3nkwQKg2+bsaW1r+ocXgpVAZAy7DkAIqpzdBWDX87KoRUZFgFkOIiddwBk2K5H0jSt88h0EOt3AGR2+bOYlc4fAFaMjb8P8Ctuv64HTENG7lYdwkuhKQAqN7JJwD2qc2TCgJG9iTVdLQKIETvvEISV8V2HpmkuEla6Y8tg0em+PGud/wcoi9esbCLcN+d1DtxNYqZCUwDst1KfAvg81TkysL/xoPG/WW2hC0VArM9RN547aprmIiOvDdE+ndotMPudP4ABo42fMyGAR+1yRao9davqFF4JTQEQ1D2fieiZddMo+8/TOlEERIrr9f7+muZTkUQjImffhdOTzh8AKokkSXou2+1kAwW0r8hEKAqAma+1D2HgetU5MpBKs7nSs9bOUgQY8XZY2d+FTNO0boj2PnamETrPOv8TImnzOQDBO2qXcMPsTe1DVcfwQigKAHLEgwCCuMnD2hfHkrdrak9TBJBhI9r3kJfXDk3TMkGMWMXhUyfoet75A8DyCVTNwA+9bNMlJCHuVx3CCzlfAEzdwnEA01XnyAiRmok0JxcBxIj1PQLR9VnGmqYpQBEbsb4fHCGspPM/gYWia1g3EWHm9Fc4iNvFd0nOFwAFMn0HgFLVObqKGdtXjYlsURbgeBEQ63t4m5HXqiyGpmldZ+S1IlZ++A2VnT8AvDA6shnANlXtd0NxJD/9edUhsi3nCwASCORQDgn1J2vNq9012Sxovkx1Dk3Tus5MNF8yr273japzEGdwgqkPMGGe6gzZltMFwMxNqWuYcaXqHBloIhn5vsoA85v+2JOA1Qjm3AlN0wAi5uf/pvHNHipDxNKRlwAEcfnQZbNeTV2tOkQ25XQBQAHd9x+EF1aOI9dO+shI2noeQB+lGTRN666KlJ1Suhzv6QnUzIwXVWbImBHQPqSTcvbubsZvucyw0wcAxFRn6SoBHrlibHSnqvbn1e6cS4ynVLWfiywSyCcDFglYJJB3/O9mJz+C9dLGu3Yw5mIMMvNQLMxOfa8NRoolWlkidfyvFnaQYn3GhMvmPFF2sbJC4J6tyWGOpF0IXp+ThBPpt+paysk10J37lAaQmbZnMwWv8wfh1yvGqOv8F1XvGOYwvqOq/aDLIwMDzDj6GFH0MqLoJSz0NqJIdLJDPJNtqUa82xyMAuC6WBkutxLdeo1GaeOok8QxmcIxJ4kjThLv221o5cCdMeMXSxZWvfGbZT0vfVNF48+Pju6ZtTn1GwAfV9F+N0Rh2ncB+K7qINmQmwUAM/GW9L2qY2SCJCtbNjOHX484dXgJjDxVGYLGIoFBZhxDIwU438zDADMOI3A3Of6TECYSwsQQ/HUlFgM46iSxz27Fm+lm7E23oE0XBJ2VL4XxUiVvHF1JE9Ss6WV+BkRBKwAA5vsrmRdXUu4dfZqTBcDszc6NTBiiOkeXMR9pKrF+rKr5aE30yyC6QlX7QREhwshIAldFi3BRpEB3+B4hAH2MKPoYUYyJlsABY0+6Gb9P1mNnuglp1htVncOo6rqeDwP4VxWNR2LWj9JJ+xDAFSra74bB7221JwPI7pksCuTkJEAWHMiJGww8t24EpVS0/WDVngtB4qsq2g6KwWYevpBfgW8WD8XMgvMwIlKoO3+FDBAujhRiVkE/fLN4KD6fX4HzTT14dTbEVDn32K4LVLS9fBSlAend1uYuIs7NyYA5VwDM2NTWH8w3q86RAccguUJJy8wkhPMMwHEl7fsYAbg4Uoi/SZyPhYlBGB0tQZwM1bG0U8TJwJhoCRYlBuErRYNxuZXQpdlpcdww+Tkwq/n12M5yAAHcVpRvmbm1baDqFG7LuQLAJHEfgMBdoQn03yvGxt9X0fb8ut1zEMzDkrLmRMf/pcT5mFPYHwNMXRsFRV8jhlkF/fBo0QX4WLQYQpcCH8a4bn7tzlkqml718by/APQzFW13k0FS3KM6hNtyqgCYuostBt2tOkeGlEz+W1S1uxzM31LRtl8NieTjb4suwJzC/uinO/7AKjeiuDO/L75SNBgXmDm/rXsXicXzqvaqeRZPaq513Udz5v+co6pTuCmnCoD8htTnAPRWnSMD7/QfY25Q0bAt+CkAxSra9puEMDE9vy/mFQ5EHyOnPuehVm5EsSAxELMK+qGwm8sxcwcXkXAWq2h51WhzPQFvqWi7m3o2F6c+ozqEm3KqACCmQE7UYNDTKpaYzKvedT2Bb/O6Xb8hANfGSvH3RRfgqmixHjDOUZdbCXy16AKMj5XqP2MAAN8+v26798vyiBigQJ4PgID2MWeSMwXArN8khwMYqzpHBtqkab7gdaNTea1BhKVet+s3+WTgvsIB+FxeuZ7cFwJxMjA1rxxzCwfq0QAALMXSqbzW8zd+uzRXAgjGzlYfNn7mluRI1SHckjMFAAyah+BtMwkA/77maqrxutHymuH3A5wzb+RMDDbz8GjRYAyPFKiOonlsaCQfX06cj8EhXzZIwGV9aofP9rrd74+nOgbWet2uGwRTIE+YPZ2cKABmb+JCAHeozpEJVjD574H67SVMqPS6Xb8gAFPiPTE/MRBFIqI6jqZIsYhgfmIgJsV7BPLOwUXfnFP7epHXjRoBnQzIwIw7XuPu7XXtEzlRAECkZwAI4h/IttVjrd973ajpGJUAlB4RqooA4Qv5Fbgl3ksvD9MgQLg13ht3FvQN86ZOvSyOe74J2Iox1u8AvO51uy4oiDjpO1WHcENOFADMuE91hkww4Umv25xXvf0iIJg7JXaXRQJzCvvjmmiJ6iiaz1xlFeP+wgGIUk5cEruMwAsWHNvt+fbpxPie1226gQgPKttMyUWBf7ffvTl9LYAgPsuut6zIv3vdqCDxTQChG/fOIwNzCwfo5/3aGQ2N5GNe4UDkh3MyqCUN+Q2vG20Ske8DqPW63W5jDJ+52R6nOkZ3Bb4A4KDezRJWLR9Fns6CnVe7fSQDoVv2l08GFiYG6X3itXMaYMaxIDEIeSEsAgiYNr9u56VetrluDLUxY42XbbqFKKB9z0kCXQDM+g33DGiHxiTls143SlL8MwL+Z95VFgncW9gf5XpjH62Tyo0oHigcACt8jwMEJP7B60YNIZ9Cx2nPQfPZe17jIG4894Fgv8MN+z4AQbyyb1g5Lvamlw3Oq9oxCoRPeNmmagYIswv66Tt/rcsGmHHMKjgvjBMDb1tYvfMqLxtcMSb2Nhi/9LJNl1iOYwf6fIDAFgBT17IBcCB/+UTs+fIXEvTPCOY+CRkhAJ/Pr9DP/LWMjYgU4o6CvuH50HQghvejAAzvr4nu4Ps6+qJgCmwBUNA39QkAA1Tn6Do6ZFrW/3jZ4rzanWMBTPayTdUmx3vi6qg+4kDrnlFWESbGwrVilgmfmF+z+xov2xyYtn4K0AEv23RJv8KK5C2qQ2QqsAUAgGBOwGA8u3wUpb1sUjD9o5ftqTbYzMNN8Z6qY2g54pa8XqHbMZDhfM3L9ionkM3A81626Z7gng8QyALgrs3tgwGapDpHBmxHpFd42WDHzH+e6GWbKhWQiZkF5+lNfjTXCBDuKjgvVMsDCXTTwtodl3jZpuWYywF4enPkBiaaMuPV9gtV58hEIAsAAfEAgpid8KM1Y/IOetuk8WWE5Nk/AZhe0Fdv76u5rlhEML3gvHB8kDqQZLHQywaXX0uHCfRjL9t0CRlE96oOkYnAdaJTt3AcwEzVOTLBDnk60eWh6j/1BfPtXrap0vhYKYbpSX9algyPFGBctFR1DO8w37Goane5t20G83wAIrp7zuscuOdEgSsACjl9O4Ay1TkysGf1OPP/vGzQgbkAgOVlm6oUChO3xHupjqHluFvzeiMRlmOECVHH4HleNrlyXGQjgF1etukGBkrS7empqnN0VeAKABnQyX8MPAMizza7eKRqbyET5njVnmq35fVBPETPaDU1YiTwyXig937pGuYH5h7b5fWw2nKP23OHCF7fFKgC4O4tqcsJ+JjqHBloTcnIS542KNKzAYRiHdxgMw9XWp6fZqqF1FXRYgyJ5KuO4ZUSU2CWlw1GopEXwGjxsk1XMK6evSk1SnWMrghUASAZng5Hueil74+nOm+bpECekNhVAoTb8yvCNDlLU4wAfDavT2jec+zxyXfLR1EDEb7vVXtukgL3q87QFYEpAGZu5GIAn1edIyMCnu77P79u+8cJGOZlm6pcbiXQR+/zr3mswojhMiuhOoZHeOjCut1jPW1S4ilP23MJMb549xYOzEzRwBQAFEnPAhC4WZYAtqwabf3R0xadYC5J6SoCMCkerl3aNP+YHO8ZmlEAh73ddn3leOsNAFu9bNMlcUZ6huoQnRWMAoCZQAjokLa3e1wvqttWDBKf8bJNVUZahagwYqpjaCHV14hhRKRQdQxPEGjaA/XbS7xskxHMJYHM3j4y6Y5AFAAzN9sTAQxVnSMD1Zyy/tPLBm1p3gVw3Ms2VbkhZHu0a/4zJTRbTnPckOILXrZY2BBZC+CYl2265ILZr9k3qA7RGYEoACigS/8IvGL1BGr3tk0E8oTErhps5mFQyPZn1/xngBkPzXHTxN6Owj5xMyUBXu1lm25hDkaf5fsCYMaW1r4gvlV1jgxISPZ0PWvHCV50sZdtqvIxfdKf5hMhei9esqBq+5VeNkiSnwUgvWzTFcyfnLGlta/qGOfi+wLAgDEHQAC33uL/XTk+ts/TFsn5opftqRIhCtEMbM3vLrcSiJDvL6WuYEGePgZYOT62D8SveNmmS0yTDd9Pxvb1u7ZyI5tgcbfqHBkhw9MJLJXMgpg+62WbqoyMJPSuf5pvxMnAxaE5g4KmeT3BjR1vJ1K7RQJz5rzOvj6ZzNcFwP5I6jMA+34Y5TT2Nx8wXvaywerqndcCqPCyTVVCNOSqBcRV4XlP9ltQu3O0lw0OHBf9GRPe9bJNNxCoPJVKfVp1jrPxdQHAggIxkeJURPTMumnkeNmmIArcQRSZiJLA0PBsw6oFxLBIAaIheQwAiGletlZJJEnSc1626RZif/dhvn3H3rM1OQyMj6vOkYGUEOYqLxucymsNJoRi+H+wmQcjNNuvaEFhgEKzGoDB06byWm+fwUnzeQBJT9t0x4S7NiVHqA5xJr4tAKSkB4DgXekZWPf8NXTUyzbLa0ZcByAUR5RdqO/+NZ8K0QFB5b3qL/Z0a+BV11IVGD/0sk23CCLfnsrqywJg7kYuYCAw2ymejAWpmLDyOQVtKjHEDMtkKy1oLjRDUwBAsPT8kSNBybXVDbNmb2JfbhnpywKgLZq+A0DgzndlxvYXRkc2e94u8c1et6lCnAz0NfXBP5o/nWfGkBeW1SlMt3jd5MpxkU0AtnndrgsKIdKeLp/sLF+tr7/pcY6m7ZYLW6ucR2SaIR2AJYMlIG2GEAAZBAiCYTKEKWDGCWaMIEz1TwuEgr2rH6zZNQLg/l63q8IgMw4RvKdCH9LGDvakm3HYSaJeppHizu1xUi/tLCdzz6/ba/CnVEOnvtcigWIRQbkRxbBIQaCXdwoQBphx7Ek3q47iAR70YNWeC5/qOewtjxt+DsDTHrf5EdJm2O0Mu40hbQnHJkAy2GFICQiTQAIgQRAGICz624mLm7dGzPy3Xl5AvpnLoLQAuOGxxguFIScQ0wQwPuY4jQMEQdTt6/oEesMkmHkCViEhljAQKRAgb/uKpqQZ8fwMawPyJg54p9hZvQN87G+NTOFnrcewLdUIB6w6Tla9a7dm9HMGCFdYRbglrxdKha+XT59RbyMakgIAIGHfBMDTAiCeirzYZqW/BcCzncCYgVSLRLLBQaqJYbdKOHaXP8MDBWG74zTKyYsb3gfhdwD/igVt/MXCoj9nI3dneF4ATHys4RphYDqYPwVwX5zYU6KbfZhjM5xGB8lGoOmgDRKEWIIQ72EiVmwg2yt0mLHm366hxuy2cpp2QTd63aYqvQJaALyarMWPWo7kfMffXQ4Yv0/VY1uqAZ/NL8fYqKeHz7mil2GpjuAZ6rj2LPOyzacnUPPszamXGJibzXZYAu31DlqrbSQbGSxd++wKEAYBGATQ7SSByUsaDzDzj0ngpfWLin7rVkOd4cmt4w1Lm3sbcO4lxnQGLvSizZMJgxArNVDQy0AkPzuVABNfsnpMdEdWXvwMvnTkjfykadSAEMyesYvmFw4M3EzrH7cewa/aa1THCKSJsR74ZF6wFrf8Od2CJ5reUx3DK+3JZHvZ8opRmQ35ZGjWb5LDYdBOZKH/SrdItByz0VYnIbt+l++GNwF+Ebbx3PovF2b9JMSs3hdPXFbbf/LihmUGO/vA+CcVnT8ASIfRWmXj2K4kqvYk0V7v+tkS/+d15w8A7YZ5Q1g6fyB4jwBeba/VnX83bGivxqZkreoYXRKmEQAAMSsW93yvllXXRncz8Kqbr5lslqh5K4Vju5JoqXJUdf4AMBSgb8KU+ycvaXx28mM1/bLZWFYKgBuWNveesqT+OSGNP4OwAIBvdshINUnUvJVE9e4kUs0uFQKsZq9qIoRm+D9KAgnhqzmrZ1UjU/hR6xHVMQLvRy1HUCvTqmN0WkJEYIVmR0AAkDepadeda26yWaJqd0d/0F7v6eat5xIFeA6E+fbkJY3fm/ydpl7ZaMTVd2plJYspSxtmGOzsYtA9AHxbDp/4g6/dl+petcd8pLnE+i/3knUB8bVK2lUgaLPDf9Z6TD/zd4ENxs/asj4S6hoCEA9RAUBMSq5BVtT6IUCHMv15aTMa3k+jeo+LN4LZYQF8H0z55qTFDQunrmVXL4SuvVMnLam7bEtR4++Y8QKAMrdeN9vaqh0c3Z5Ea1WG1R/h+XUjKOVuqnNbVLetGMAwr9tVJUj7rLexg20pz+eD5qxtyQa0d3K5pB8E6b3qgpFzal/3fM+W5aMoDciMtlxvOX7Nbz5qI0A1ejERltYfbNx649LaS9x6UVfeqVOWNswgiM0ArnTj9bwmbUbduynU/DkJ6XTpHeEIyOezletsJEfHwKcbOWVDkC6qe9LN+u7fRTY4UEvrYgEbreomEeXo1Upatp1nAXT6zo0dRt07KdR3d9RXIQKukjB+O2lxw0I3Xq9bV9WbHq9JTF7a8IPjd/2+ec6fqfY6iapdSaRbO3u3Qf+zYmz8/ayGOgMGe7oXt2qxABUAhxzf7PORMw457aojdFqQilV3kJJr0aqP5/0FoJ915nvTLRLHdiXRWuOr5/yZYcSIsHTSkvofXrekrlvnUGf8Tp24rLa/I83fgvH57gTwG7udUbU7ifa6ThQB5P3Ofx+QCFUBEKSLamOAJq0FRUOAdkIMUrHqEmXXIu7ENbi9zkHVniTs9mDe9Z8JgaYV5c4AACAASURBVD4TYbH5psdrzsv0NTJ6p05c0jRMSGMTGBdl2rCfsQRq/pxEy7GzXnTeGTDa/IVXmU42h1+PgPgqFW2rUkDBWQHQwjlwl+EzrRycAiA/QO9Vl1xTyRuV/E+vHm2+QmfZjbC12kHt2ykEaApJlxBhuOOYv524uHlkJj/f5QJg4mMN1wjITQCyuj7RD+rfS6Pp0Onv5gj0TCWRkrdVvCZ2GXLgkUtXFAVoCWAyV682CqU4OHdvQVqu6pL82uqyS5W0TMRM9NzpvtR0KI26fSkE6K2TqQpBzsYpixs+1tUf7FIBMHFx80gh8HMApV1tKKgaD9hoPvyRu4822zRXK4gDAHAEQnX3DwDlRkx1hE7r7AE/WucFqaiqCNiGVa4wDGUTwJOOuQLAh3YjbDlqo/FAcEaNXFDGhPWTltRd1pUf6nQBMPmJ+kGCnFcABG+D7m5q+EsaLdV/HdZl4D/WXE3KtngTkjIa7gkqE4ThkQLVMTotSJ1VUASpqBoeKYQRkgO6TmCwsmvS98dTHQjrTvx7a42D+vdDOQ+niCB+duOSuoGd/YFOFQCTv9PUCzatB1CeabKga3g3heTxnaIMlZP/ADCp+7CpcEW0KFCTAIO0Zj0o2gI0ryJGAldYni+NV4qZXVubnhGn45rcXu+gfp/n27L4SQVDvHLddxt7dOabz3lVraxkAVO+BOCCbkcLMGag9p007HbevWKM9TuFQQhAaAqACBFuiWdlF8yscMCBmrEeFPXShgzQ3gq35PWCGaJRAAJdcvzapMSq8dZv7XbeWbcvHYZn/mfFwIWWibWd2TXwnAXAlqLGrwGY5EqygJMOo2pPe97USla2xfG8hu0D4eFZ2Kp9Nq8cJQE6G75epgPVUQWFBKM+QIVVqYhgWn6F6hheKp5buzPj5WjdddPjHK3enSwM6gY/rmOeUH+g4Svn+razFgCTFjd9HMDXXAuVA2QaAxuKG7+lqn1hm2qH2jw0KdYDYwJ2JnytE8pnj56olcEa2r0mWoyJsU6NxOYEg6Ds2mTbjd91bB6gqn0/IqJvTF5Sf/3ZvueMBcB1Tx0rIJIvAgjVvpadwlh0rl9stkhS/KzNAxEifCG/ArcG7Cx4AKgOWCcVJNUBLK4+mdcbt+dXhOJxAEmh5No0eWn9JCLMU9G2zxkArZr8nSP5Z/qGMxYAVsr6R4RgrX+GiEDP3PQ4e77eR+To5ktAx2z/j0WL8dWiIRgdsDv/Ew4EaMvaoDngtKmOkJGx0RJ8tXgIrooW53QhwML7w8k6HsfS4163GyD9Ecn76pm+eNp345TFTSOY5DYAwXn4qkC0SHy/7CLrx162WTD4nX8mUw7xss2uGmTmobiTm6FESaBYRFBuxDA8UhCo2f6n81jjPrxvB7Oj8rtBZh4eSgxSHaNb2lliT7oJh50k6mW600tG66WNd+3Wc3+jQuyYe5vfHvQPXrZZvTf12VSDvN3LNgMoJSEu2/BQ4Z5Tv3DaqzST8zRAuvM/h1QTf1Em8UXD8rCqJwHA38vMrouV4XIrNPMUP+CAcdDWIwDZcsBpgwMO9Br7GAlcbhXh8i7+3LZUI95t9ncBAMZFxLTWq+acJCPd5O9roU9YAvwkgBtO/cJHbremLKmfCNC1nsQKOJZ8ul0Cs4ZIgozgzIQOm4N2O2y9AiBr0sw4rE9a9C0ybUB49/5vOmzn7B7/7uPrj0/q/5CPFAAS4u+9CZQbWqpseDU3iSK68/ezN9MtqiPkvLfSzaojaGchPLpBcdKM1mp9PewKIvmRvv1DBcDkpQ1XE/g6zxLlAJZA8xFvKgCygjcLOkx2p5tUR8h5u3QB4GtkebMKplnf/Wdi0uRljWNO/g+njADwOTcO0D6q9agDdrI/9CUiugDwqzZ28J6e/Jd1+9KtgdoWOGyEB6OU0ma0HNPvgYw4ePjkf/2gALjhycYyMN3ifaLgk5LRVpv9clSYesjLr/amm+Ho5/9Z54CxVz9q8S0vblLa6xyw1J+1jBDfevI5AR8UAIbNdwBQtsVt0P1/9u48TqrqzB//57n3VlXve7O5gLgCook6EwVNgnGJMctkwZgYlG4VjRFQkvkm+c1k0pPffCdmkoiAS8QICHElMTFxiYjLCA1qNG4sorLv0N1UVy9VdZfzfP9ommDL0lV97z331j3v12teE+3uOh+7q+557rln6W71oSJVBUBgvWG2y44QGW+q33VwGd5fBw8+mVXJWTyui4m9//CPRwCMSVLiFIhsyoGT9bYq1XT10CuIOoSN1aZ6Nu2Xd80OdLIqhoPI60mATpZhqqV/A0QH+noNAC6amRwJ4BxpeQpEus3jylQtAQyk1812NfzvIweMN7JqFCCQPL5JSbepa6ALzvvCr/YNB/YXADp9fIMAJXfZlLdvfs2H4TUld69mk7IjRM4r6nceSKR7e43KtKtC2w2Opl8I9D4CYJogNU2BMDuEt2dRa2roK2jWWV3Yofb/9912J4MPbTUZMGhI87AAEIDZqa6BbhDEEwBAAzMxQRUALhCCYXV59AYl9ry6VnL3XGav7AiR9Vy6RXYEpQ/y8BGA2SXU7H+X0P5tgbWLZ6dOAmOI7ECFwuzwppNWnX/wbLHTeF8tSZNmrdWJrWrvhWDx8EYl26mugS4adtns5IkamHw/wrGQWWmPKlRSlW/QPJdRd6Cyqb9B8Hg1CmB3q2ugm4RDp2kEnCo7SCGxM968ScnHQzaUo9tod+MdMyU7RuS9baawIeDH5EaPN9cqy6Nra1QJ0KkahFAFgIs8GwFQy8wCgwE83r1L/UUCgAH8Qf0tAsWrmxVHFQCuIuBUDYSTZAcpJOwwHNuDN6paARAYr2WT2KyePQfGVjuN1021LDAo2INyTFgM4cN5K5FCOFkDUCs7R6HxYpMyUnMAAiHNDp5M75YdQ+njz9171CFBAeHFCIBQ+/+4j1GjMahcdo5C48lSFVUABMLvu3ehXV2NAqddWHi8e5fsGAoALx5XquV/HmCu0AhQBYDLPDkaWBUA0r1rduBvage6wHo1m8RbamKmdJ6MAKjhf9cRoVwDUCY7SKFxHHL9Ncn9l1Ry0MUOHuneITuGchSPde1EhxqhkcyDEQAPrqlRx+gpABRF6Qd1CVIUpZBoANQ5pi7TdQ8qYDUCJlUp6biydJjsGMpRfLN0KMo1Q3aMiPNgBNSDa2rUEdChMdAhO0ihId2De0VW95+ynR4rxz8nqmTHUA7jvEQ1zoxXyI4ReSzcv1ZpXlxTI44ZHRqBVQHgMtJUAVCovl4yBJVaTHYMpY9qLYavlqgjTYLBgxEAL66pUUeU0gC0ys5RaMiDEUhWBUAgFJOOLxcPkh1D6ePLJYNRRGpKUxB4MgKgnuq4j9CmgfGh7ByFhHSCbnjQWQt1cQuKcxJVGGmUyI6h7DfCKMZZ8UrZMZT9yIMRAC1G6jGA2xgfaNC0dbJzFJJYsVdvUvXmDwoC8C8lQ9RfJAAIwNdLhqq/RYB4MQIAAHqR+iu7iYF1GgOqAHCR4dGb1KsPlZKfEUaxmnAWAJ+IV2C4USw7hvIR3lyrYqoAcJUGXqdpgtfIDlJIPBsBYPUIIGguLa5Xd56SXVRULzuC0gc73lyrjBL1aXOTA16rPTuj8kMAaoszl8TLdU9el21vXlfJ3zF6EU6NqY00ZRkdK8NxRpHsGMrBmMCON9eqRJm6Brpox9JbqzZoAEDA/8pOUwhIJ8RKvbtT9+qDpeTvoqI62REi6+JidfcfNF5eo+KlmloO6BIGngd6dgIEiF+UmqZAJMo1T/fs92poTcnfKbFSDNPVXajfjjOKcKJaiRE47OVqJa3nGqu4gV4A9hcArGOp3DCFIVHh8ZvTUYthg+hTandA330qXi07gnIIXj+qjHt9jY0GZs3+RwGwZGrVRgb+JjdTyBFQXOPtm189Agimf05UQVfTAX2jg3B2Qq37DyJPRwAAlHh8jY0Exsql02u2AL2PAAAQsEheovBLlOvQ4952AuoRQDCVko4xcTUZ0C9j4+UoJdURBJLt7SilniD1GGCACHygrz/wm3Ri9BAAU0qiAlBc5/0FSXj84VLyd7baic43ate/4BI+jFIW16nr4ACYdlxb3PsPBwqA52+uaAXxU3IyhZumEUqqva9KWRUAgXVarEw9BvCBDsKpsVLZMZTDYMv7g7KKq9VqgPzRn5+/ueLA+T99ei36hd9xCkHpYN2bI4D7ED58uJT8FJOOEWpHOs+NjJWgWA3/B5awvL9J0QxC6SD1HsiHBtze55//Ycktla/2Lg9Q+oc0oHSIP3fmbKoCIMhGx8tlRyh4Y9TGS4HGZtyXdsqHGFCHP+aGgGf/emvFyoP/3SF+heL/+hWoEJTUG9Bj/gxHqRGAYDvVUEPTXlM7Lwab8GmpshYnlKi5ALlh+ljf/rECYMmtVS+ASG0M1A+kEcqH+tgpM6l5AAF2jFGEmJc7QUVcnDQM1ROyYyiHwbYB+HhoWfkwQ80F6L/nnp1Rsazvvzxkb6JrdLPj8FsA1C3nEcTKtAe1BD/BfjZK+C8Ap/jZZK5eyrTiLbO9X98bJw1VWgxD9QRGxcpC/XxXB2GYXoTNdlp2lIJ0jF4ELeQTLdPsYK3ViZ1OFklhwWTRr59LCtvjZC4grGXin/rVnJYA4mX01WyKv+VXmyFlCmjTD/WFQxYAz0wrX3PpzORMBv0fb3OFFzPW7LRLG54cR5af7U5tefcrAAW6ANhod+f1czoIZ8UrcXnJINRo4aw9jzeKVQHgkTAf/NMqTDzVvQdvmik48PWWwTdkOK8vGJdYfPTvdM/EJn4iW5n6BIBRfrYbJkT0q6W3lK891NcOO42C7czPAGzxLFW4sU7ie2/c4G/nDwAEHPIPWQgcMP5mJvFfyQ/QnN0nO05ejlXnAnjmWD2cqyyWZdvwX8kP8brZXrCdfw9e7XeLi5vIZI2nAgX9ix2ITfHizsPO6ztsAbDkX4d0gbRJAEIw9uQvJr79r7dWvySlbY3ekdGun2wwHu3agT9375YdJWd1mj+zoKOoTg/fqNCfundhcdfOAu/4ezDkXJuem171PAGzZbQdcLbQaNJfbhh22CHZIy6kWHJL+csg/Kf7ucJLi9HGqmTl/yerfUFawRcAvZZmWrA82yY7Rk5qQthJhUVNyIqrZZk2vJBpPfo3Fghi+11ZbbeUVPyrFsMGWe0HEvNPlk6vWH6kbznqSspxyYr/BrDEtVAhpumE+lGJ9OImkrZl8l1Vo7YASMpq329/6NqFVhGeHaqrtFjoJ6oFkQZClRaeFTBtwsIfu3fJjuGntjm1Z26T1fgbN5A1aFSiSzPUZw8AQPjruFTl/xzt245aADQ1kdB17TsEvO9OspDSgJqTYzCKaHTDMvNT0nIQMYBV0tr3mQPG0+m9smP0mw5CZYg6qrCo0oxQFVZPdu+GHYFh/wMIUkcmJy83z9WLtLE1I2OI/EpcwnuOQd9paqKjLjHp115Kz0wr36vp9ucAbB1wuJCqHhFHomL/EjUd35WZhVjuh81vb2bbkenncqkgKFJblLkuTMtD0+zgTTMlO4avGCxt+B8ACD3X5ESVjqqRcYSoVnTbDsMWnz94v/8j6feV6plptdugaV8AEM7p2QNQeXwMJQef9se4suFlrpeVR2hyP2x+s8FYa3XKjtFvCVUAuC4eot/pWqszEpP+DkZM0q5JV7/KtSBc0fvPJbU6Ko+P5FycdhLiC0//oHpzf38gp0/Vkunlq0C4DEBkZrZUHmeg7ON7/Sdg2NfIyAMAuqA3ZLUtyw4nIztCv4WpswqLMBVVO5ys7Ai+IyH+Lqttw7IbAXxk/W3ZYAMVx0XnURwBLcS45NnvV7+dy8/l/Klackvlq3DofERgj4DqE2IoO9xWv8w3NjFLuSpV1+59E0B4bold0B6GndD2C1NnFRbxED3YTQnftweRrbOmrjWnjsc1zMTE1x/qS+VDY6geGS/4OQEMbGaHLnh2RuVruf5sXleqJT+oeE/X7fEAfN/4wQ+kEWpPiaOk/ogV5ImbVtqX+JXpYE00wQbhbzLalqWLw1MAlFJ07jz8EqbfaRc7siP4ikArm2iClA9oY7PzeQAnH+7rJXU6ak5KFPDJgfyuw7HxS35Q8V4+P533r+WZabXbikzzPBAeyvc1gsgoItSPjqOo6uiTjoglTgZkNEtrW4JsiCYBVqhVAK4L08qKME1YdYOAvGsRa3zUa3BRtYZBpxfBKC6woQCmP4isuOCFGSXb832JAdVFf/5hfceSWyqvIsI1APLbAD5ASmp11J+eQKykv78WvnzyyvQILzMdDoEiVQCE6aI6TJ1Y57qhIdpiOUzFqhuI5VyLrl6ePh7MX+jP9xpFhEGjEyipDc9qksMiZJhxy5IZFd9Y+qOa/p26dhiuDIw8e0vlQsH6uQByfgYRBLpBqB4ZR/WJcWi5HS+pk9Cu8yrXkTDiKwCKzFhjmC6qo2Pl0CO8DsltBgijY2WyY/RbJlKPAMgpZu1VGS0bpN0AoN89OumE6hPjqBoZR4g3DHoVpP3TczMqZ7nxYq49GVk6o+zdJbdUnEuEawhocet1vVZcp2PQGYmPLvPLCU2Z+jT7fss3p/bkFIA1frcrS5gKgCLScFa8UnaMgnFWojJUEyvD9F4dMBJv/0/9aR1+NztxNccZdG0+P1tap2PImQmUDTbCtF/APmbcUnlMxfgl08td2wjO3U8VET97S+VCTddGM+E3AAK7HiZerqN+dAI1A68G6zsqza+6lSsnxC9LaVeCdMjuqi4vGQQjRFeXoIoR4fLiQbJj9BsDSEeoACDWlslot6zd/DqAwfn+POmEyuEx1I9KIFEe6OIyS8BdpkOnPDejctbiK9wd9fXkv/yZaeV7n7ul8rsO6cMZ9AsEaH5AvFxD3Wlx1I+KI17m1n8+yZoM+Kykdn2XZYFUiJYC1mgxXFE6THaM0Pt6yVBUa+HZ1CUlLJgRKgAA/FVKq+zONTdepqFuVAJ1oxP9mvjtoy4wZuu6fdKzt1be/NIPKjwZVfflFuWSX3YMguFcC9AkAKP8aPNgpBNKanWUDtJzmOCXGyY+Y8G4hK+7Yf1g19ulWUNvBSESs86mlo/AybFS2TFy8ufu3ViaCc0TsUC5uKgOXyrJ+yZPivetLtzZsUl2DJ9QOptN180ddo6vN3gNL2dHQ6dV8KD/sroFuvY46G51wI7/uzkyYw2BF+mGfv8z08o9PwTF9zHKi29PnkOgSUz4CgHDvWqHdEKiglBaZyBRpXu+GQQBd88bH/+et6183NTWd58D6CK/25XhitKhOD9RIztGzpqz+/CHrp3ROhxmAGJE+EbJUJyXqJYdJWfLs214rGun7Bh+eWZO7en9moXvpoZm827A2yXYzEAm6SDdaiPTzl4XA5sIeII1XrRkepWvu7xKfUh52ezkibajTdDAFzLwzwBGIIdZnQfTYoRYsYZEBSFRoSNWqvm9A1SHqceOffBc8vUUkKmtq78P8K/8bFOWzxbV4mslQ2THyEubsPBUeg/ezLarQuAwDBDOSlTi8uJBoRr2P9jj3bvwUiYiO6UzT59TN3a2n03e9CKXpePWdgAVfrXJDFhdAtmUg2yKYXULCDvvz7ADYBMIrzLTiwzxwtJbqza4GDcnUnfXeGZa1XoA6wH8FgAum80JYXeeVH2i/mfHwkjhACwYLABhMzQNgE7QNIJmMLSYBqOYECsikC59wlV53LGuAnCPz+0+AyASBcDuEO+xXqPFMKn0GEwsGYq1Vgd2OlkkhdXvGeNJYWOjHZipNEd0glGCqn5u3JMgDVVaDEP1IoyOlYVqtv+hhPk9misS+jN+t9kdt64mHzt/ACDqmSsQL9NQvn9aDzsMK8Ow0wxhCQibIBwGBEMIQDMIpPXsKqvpgB7DpvbNzuVlbWUfLm4i08/8RyK91zyUxhXmFGbcKztHzghr5o+Lj/G72amtqzbBw8cpQVFMOn5efWqozoV3y5tmCvM7w3Ead0PZcfhk3NdrdCAIMH68b13oVqzkhzbOqR0z0u9WG5rNdwCM9bvdgWJgyoLx8ftk5+grkOW2EY/9jsJ47DBjdONy63z/26WnfW9TgjQ72G6H51RAJVq22pmIdP4Ak3jS7zYnL7cuQAg7fwDtTmcskFvmB7IAmHsOdTOwSHaOfDCOvje1622yeMzvNmV53+6SHUFRDila70161PcWyf9rq0sWLLqUAvnmCGQBAABMfA8QwtlShG9c9wr7unapru70lwHs8LNNWT6wAvk5UpQovTe31VWPWelngw0vcz2Ar/nZplsEc+CG/nsFtgBYMC7xHoCXZOfIQ9yx7UY/G2wiEiA87mebsqy3u+GEsC5UCpsDxoaQTNIcKAIWNxH5utsRa/b1QCj3O3nhgfMTq2WHOJzAFgDAgVGA8CG+ceJj7PO2UhSJxwBZFlhrdcqOoSgfscbsjMwOgMT+Dv83MWtEfL2fbbon2H1YoAuAEdn4HwHK+6xjiY4vHZr1dYOM2urRzRzO31XO/pZNyo6gKB/xNzMy78mts2pH+3rq65bm7BfRs0dMqDB4ZywRf0J2jiMJdAHQNIFsgvit7Bz5IN3f8wGaiIQG/N7PNmVZZXVEZra1Enzd7GCV6fuBeJLQIyDy+RmctLNWBkQD5s49hyzZOY4k0AUAANjk3AcgPKfA9GK6tHFZxtd1sswI5FITt1nMeNP0dcNFRTmsN81UdHZ31PCwn801LsuMZKJL/GzTJfb+vivQAl8ALBxXsh1Ef5adIw8aa3SDnw3OqRvzGgNv+dmmLK+pxwBKQETokdTbc6rHvOlng0KnGxGCfqovBj2xcFxJ4B/JhuIXS+T79rouoWsnv8hFfraoMc3zsz1ZNtjdodkaVylcm+10ZGb/M/Fv/Gxv6tOcIKbJfrbpFg5JnxWKAmDeucbzANbJzpGHWsStiX42qOnmIgCRuCKpY3YV2f6a9vzE1oCgtEH2I3622FVlfRNAvZ9tuuSDB84zXpAdoj9CUQCAiInga/XpFvL42Mq+7qj+ZJKYIrEnwCqzA9sctTWwIsd2J4M1VlQm//Gjd1R/0tdnHcz+XjvdwoS7/J8omZ9wFAAARDa2AIwwbrV13jXLzLP9bNDRKfCTT9zAAJam1SiAIsez6b1RmfoHgr+72U1uNj8B4Fw/23RJ2nRiC2WH6K/QFAALJlCSNfg6BOUWXYOvkwHvqh79MgNr/WxTlrfMFHZG6AhWJRi2Oxm8HZ2VKO/Nrjnd161/Cfien+256MGHLqDQHGQXmgIAAMC4U3aEfDBw1beXcbWfbRL7O2FHFgHGo107InMnpsjHAP7QtSs67zkmX4e0p7zOlWB8y6/23CREuB5Vh6oAWDA+/hYIr8rOkYeShGZN8rPBrJn9LYBWP9uUZYPdjdejsxRLkezVbBIfRufkv7aEbc/3s0HTtCaDUOpnmy555YEL4m/IDpGLUBUAAAARjuUVh/BdMJNfjc0ddk43E8/1qz3Z/pTerXYHVDzXzQ7+kt4tO4ZvCLjrV0PO9LXaIUYo9/0P43L10BUAZanYIwDCuPbmtMZm+7N+NqhbmAUgEtPkO4SNJ9N7ZMdQCtxfunejQ4RvY9K8MLK2Q3f72WRDs3UhgDF+tumSVpGNhe5AttAVAHO+QFkwPyA7R17I32UtswaP3Q2Ec+JkPpZn2vBuZPZkV/y2xurEimxo5ncNHGHh3YPG7PK51ZAu/eN5CyZQ6G62QlcAAIDo2ZEqdGdvMvirV6/oPsbPNom0XwPRmK/EAB7s2o42EejzN5QQSgoLizq3ReOD1IMBusPPBqe8zEMB/oqfbbqEofm7TNItoSwAHhhftJ6Yl8jOkQdD49h1fjY4u2b0KgDP+tmmTN3sYEHnVjhRulQrnhJgLOjchq4IzTEhxlNzases8bNNWzdvABDzs01XEP91wblFH8iOkY9QFgA9OHQTLnqIG6a8zr6+yQXEz/xsT7ZNdhpPq/kAikv+0r0nMvv992LQ/+9ne00vssHQfL05cgs7Ye2LQlwAHD8+8SSATbJz5IpAQ82M+SU/27yr9oyVAJ7xs03ZlqZb8EqUntcqnvibmcQLUTtzgvDEnLoxr/nZ5Ja4+RWAfX086pItXTsTT8sOka/QFgBNRAKg38rOkQ8C+T7RhYT4CSIyFwDo+Q99pGsn3onObm2Ky1ZZHXiwM3KbTLFO1OR/s/5fE93ATPcuvoJC+2wotAUAAMAx5gII3z6whM81Ls+c6meTs+vPeAPET/jZpmwCjAe6tkdu+FYZuM12Ggs6t0FErPsn4Pd3VI95y882J7+SOZmBC/1s0yWmYRj3yw4xEKEuAOZ/mvYCCOPJdySg3eh7o9B/ghCunhgIiwXmdmxR5wUo/bbDyeCejs0wOVIfFQAQgoSvz/4BgBztewB82yTNNYzf//ZcCvWuUKEuAACAmUI5AYMIkyc9y75ud9mzIoB/72ebQdDNDmalNqqRAOWoNttpzEltQneEZvwfwPzwnTVnvOtnkxNXcDEAX7dJdwshnH3PwUJfACw4P7YMgK9vWpdUxUqtK/1uVAjjJwBMv9uVrZsd3N2xGasjc367kqtVVgfmdGyK1HK/AxhZGPip382WCesqADV+tztghDXzzo8tlx1joEJfAAAAI1wnMPViws1+t3lX/aj3gXCeqjhQJgvc17EVK9XqAKWP17JJ3N+xNYrD/gAAAmbOqRq73vd2Nfj+KNQVIT2Ztq+CKABKzNhCAGGc7v2Ja1eY/+x/s4n/BOD3Fp+BIMB4pGsH/tK9O3ITvJSPE2A80b0bD3Ztj/LmUbuZEj/3u9GGZeanmHG23+26oMPUYw/KDuGGgigA7p5AnQT8TnaOfDjs/97Xc2pPTkHKUp9gYADPZVowM7VRbRscYUlhYXZqE57PtES36wfAoB/PqT3Z/xsoPaT7/jMWPnguhfGGXxUDWAAAIABJREFU82MKogAAAHb4LoRwnTsB37z6Va71u93a6tH3gShUZ1e7bbOdxi/b16t5ARG0yurAL9rXq4mhjDfrakb7frjat5dxNRgT/W7XFRrfKzuCWwqmAJj/6cQaAGGclFFs2PZkvxttIhLsiB/43W7QdLGDuR1bsLhrJ9JRnPwVMd3s4NGuHbivY0s0J/t9FEOj6T2bqvkrodvXAijxu92BYuDlBeMSYZx0fkgFUwAAACicezIz+LtNzL7/Le6sH/sSAYv9bjdoGMCybBv+M/kBVmT3hW8YSTkqBvC3bBL/t/1DNKu/cQ/mh+bUjFkmoV0i5ut9b9cV4exjDqegCoDOyvgfAIRxY4YTN6+0L5bRsO3QNABqWjx67g4f6dqB2amN2OGE7mhv5TC2OxnMSm3Eoq7t6BC27DhB0WrZYoaMhievtC9l4BQZbQ/Q3vL2+B9lh3BTQRUAi8eQCXAozweAhMmAAHD3oDG7CPg/MtoOqvV2N37Rvh5zO7Zgi52WHUfJ0w4ng991bccv2zeoZ/19MWb8ZsiZUo7MJEnXuoHje+d8gQpqS9GCKgAAALZzL4AQPtzjL17bnB4uo+XZNWPuB3ipjLaDitEzUexXqQ24q2MTNqlCIDS2ORnM79yKX7Svx2vZpFru+XEvzKkds0hGww3/230cwJfLaHuAHA0inDeXR1BwBcD8z5RsBegp2TnyoAtZ52ETMetiCoAuKe0H3DqrC7enNuCO1EasyO5TkwUDqJsdNGf34Y7URvxP+3q8aaZUt39o3dB5Cojk/HoM/QYAupS2B4SevH988WbZKdxWcAUAADAhnBM1GNdNXM1xGU3fWXXmRhB8PwgkTDbY3Xikawf+PbkO8zu3YpXVEeXNY6RzwHjX7MC8zq34933r8GjXDjXUf1T0HzJ2/AOAKa9zDNAaZLQ9YGHtU47CkB3ACwvOM55tXGG9H7qJJkRDyvaZXwXwqIzma6v3/rq1rf4bAM6R0X5YWMx400zhTTOFOGk4wSjGqbEyjDRKMNwohh7Cg83CQICx3c5gg92NDXY33rO61GhMbl7bVbP6DlmNm1nz6wQaJqv9AVg//DzjOdkhvFCQBQCImFdY94H5l7Kj5Izou5BUADTRBPumPau/pev8JoAyGRnCxmSBdVYX1lk9T0+KSccIoxiD9QQG6XEM0hIYrMdRqcUkJw2XdmFht2Nij8hij2Nit5PFJjutOvz8dQmhT1pMV0j8BVIoJ/8R6B4ZeyX4oWBvVb69jKsTmrUNYdxsgvgMmZtNTG1bfQOYQ3nAUlDFSUMx6UgQIUE6iklDgjQY/fwIJoWNjSEZ3j7BKEGV1r97CxuMLAukWSDLzoH/HdVDebzD186pHTtPVusNL2dHQ6dVCF+fk3aM2HELP0WtsoN4oTBHAAA8dAHta1hhLgbjGtlZciboBsD/kwJ7zakZc++01lWfY4R0q84AMiPUqYWlUImQx2V2/gBAOn2Pw9f5g4FHC7XzBwp0EuABTjgnbhDh6qte4QqZGWKx2E0AdsrMoCjKwDBou4jpU2RmuOlFLmPgOzIz5Esv0Ml/vQq6AJh/QfxVAK/LzpGH8oRtfVtmgF9XnNoiwNcghAcsKYoCoGfe5NV3VYySegebjluTAEi9ocnTm/ePi78mO4SXCroAAABihPJZNpO8RwC97qo5famTKntTdg5FUXJnpcrfvrN29IuyczDjRtkZ8sGEO2Vn8FrBFwAdWuwhAG2yc+RhzDUrrfHSWmemxhXWrPTOoWc5XaXSYiiKkju7uwTZnUM+2bDC+g2YpT17b1xunU+EM2S1PwDJeDz2iOwQXiv4AmDxOEozY6HsHPkgwXKWzezv/BmYCiZkdgyBsAp2vqiiFBRhGcjuGAr09PtTZBYBDEnXsIEizJ97DhX8bNaCLwAAQNfEXQjhs2wCJl73Cg/2tdGDO//ef+XoyGwfBojQTeJVlGhhQmb7MLD9kd12pRQBDS9zPQhf97NNlzAJca/sEH6IRAFw/7iiD8F4XnaOPMQd2270rbVDdP69RKYI2T2DfIuiKEruMrsHQWSKDvUl34sA1uzrAST8as9FS+edX7ROdgg/RKIAAAAGh3M5B/GNEx9j7w/POELn38tKVsJOVnoeRVGU3PXj8+lbEdDErBHx9V634wWikPYVeYhMATDCiv8ZoG2yc+Th+LJjncs8baEfnX+v7O5BcLpDt7miohQ0p7u4vyN0vhQBm5ZnLwcwwss2vEE7jHj8Sdkp/BKZAqBpAtlg3Cc7R17Y8W4iTQ6d//5vR2b7UAhTyqGFiqL0Icx4rnN0PC8CSA/pvv+E38w9hyzZOfwSmQIAAGLCuA9ACP+4dNm1KzInuf6yOXb+B37M0ZHedgzYUSsDFEUmtnWktx4DdnJ+SuhZEdC4LDMSTJe6/bo+sG1YUrdM9lukCoC5n6adBPqT7Bx5IGa6ztVXzLPzP/DjZgyZrcMAjtRbSFECg1lDevswsJX3SZOeFAGs0Q0IY99CeHzhuJLtsmP4KXx/pIHicO7tzKBrJ7/Ih5zem/uLDazz7+VkipDZMcSVSIqi5Ca7YwhEunigL+NqETD1aU4ANNmN1/IbOxTKvmEgIlcAzDs/9iKAVbJz5KEOcWvgp/O51Pn3sjvKkN1d78ZLKYrST9ndg2B3lLn1cq4VAV1V1jcBhHG98NoF5xv/KzuE3yJXAAAAA3NlZ8gHAQObWONy59/L2lcNs6XWzZdUFOUwzL21sPZVuf2yrhQBzAO8RsnCuBtEodssbqAiWQBoHFsAoENyjHyc17DSPCuvn/So8+9lttTCbK3x4qUVRdnPaquG2epZsT2gIqBxmXkmgHNdzuSHzlhRbJHsEDJEsgCYdz51AHhYdo68CNyQ88943Pn3MvfWwWqr9rIJRYksK1mF7B7PH7flXwRo+J4HebzHeHDuOdQuO4YMkSwAAIAE7padIU/f+fYy7n8v61Pn3yu7px6W2i1QUVxlpyqQ3eXbo/Wci4Apr3MlM77tZSjP6OF8JOyGyBYA8y6Ivw1ghewceSiJa9Z3+vWdPnf+vbK7B8FOlfvZpKIULCtVjsxOf88EQ45FgJW1rgEhdOeGE6N5/nnxv8vOIUtkC4Ae4dzzmYDvHvWDKanz72mbkNk5BFa7GglQlIGw2yuQ3Tmk92hfv+VSBEzxPI0nwtkHuCXSBUBZe3wxgD2yc+RhVGOz/dnDflVm538gAyG7czCsfWpOgKLkw9pXhYy8zr/XUYuAhmbrQgBjfMzklhZhxf8gO4RMkT/gvbE5exuDfigzg5Nl2FkBK81wMgzHYrADMDOE3fM9pAGkETQD0DQAOr2b3m02MRvrNKPsw2emURZAMDr/PuJ1rYjXtcqOoSihYbbWwNxbJzvGwebOHxe7sXep3GWzOeFw58nEzqklg4wmODhdCEDYAAsGi54f0oye6xZpgB4j6EWEWDHBKNKgx+V2P8x824LzEz+WGkKyyBcA1zanhwvo6wF4f+TufnaWkW13kE0JZNoF2Bnw8lMHwFtgNFccb5xcWm9cphnB+tPGa9sQr2+RHUNRAi+AnT9YMDJt4qm2DebrAMYD+AyAvPcgBnoKg3i5hqIKQqJSR6xY87NHErrtnPTbzxRv9K3FAApWLyFJQ3P2KYC+4GUbZpdAusVBd5sDYXm834QGFFdoKK43UFSlgwLyV45V70Ni8F7ZMRQlsLK7B3mxyU9emIHMPgfdLTYyKQEIb9vTY4TiWh0ldTpiJd4+nWbwUwvGJ77oaSMhoI5zAwDS7wEL1wsAdhhdexx07bVhZ3zcZEoA6aRAOmmCdEJJrY6yIQaMIrmVgLWvGmzFUHTMLoA8vpooSpjsnzgbhNUzdprRudtGd6vjxuhkvzkWo3OXjc5dNoxiQmm9gZJBOjTN/euWDj3Sk/96BeTeUK4mZm3TSutDYpzgxuv1dPw2OnY6EHZAdpckoKhSR/kxBuKlcud+6sUZFB27A6TbUnMoShCwoyOzbRicgR/sMyBWt0DHLhvpFkdqjoORTigdZKB8qA4XH2tu7tweO3HxFRSc/1BJVAGwX+MK60fM/POBvAYLoHOnhY5d/lbOuSqu0VBxfByGxEk4FLdQfOx2aHFTWgZFkY2tGNJbjoXI/0jfAXOyjPbNJtLJ4I7KkU4oH6qjbGhswI80iejH88bFbnMnWbipAmC/KS9ynRW3tgLI68jdbMpBcrMFOx3cjv9gpAFlQ2MoH2qAJA0IkO6g6Jid0Eu65QRQFImcdDEy24eBbd/mH38EM9C120Zqmw0W4bhuGUWEyuExFFXm/TvL2ogdv2g8hXH5t+tUAXCQyc3m7wi4KpefETYjuclCui2co0lGEaF6ZBzxMklVgMYoGrQHRlUkt+JWIspKVsLcPciNE3jzYnYK7Ntg+js3yUXFNTqqT4iB9Jx/f7+bPz4+yYtMYRTpjYD6Yo1ymhhidQnsXZUNbecPAHaG0bI2i9R2G5BxLRCEzK7ByOwYAmb1dlQKnCBkdw1GdtdgaZ1/5y4bLWuzoe38ASDd5mD3u1mYnTk+tqDcrvGFTo0A9NHQbL4B4KhH7nbsstGx1QKH9zP0MUVVOqpHxtycbJMTLZFF0bHbocXU5ECl8LBlIL19GEQmr6eMA+bYjOR6C5n28N6w9EUEVBwbQ9nQfi1oe3v++PgnvM4UJuqWqy86+slQyY0mUlsKq/MHgEzSwd7V8u4MRDaB9ObhcLpCd6aIohyR012C7k3Hy+v8s4yWNdmC6vyBnnkM7Vst7NtgHvV6TBTaE2A9owqAPoqzsQcBHPKBNDPQ+kEWXXsL60N0MDvL2PteFla3nBnBbOtIbxsGO1X2NuQ8lFAUNwk7Vf639NZjwI6cbVfsNGPv2kyoh/yPprvFQdsH2QNbEB9CB0TsYR8jhYIqAPq4ewJ1grCo779nh9HyXhaZfcFdKuMWYTJa1pq5P19zC9Pce0YM/yQxXcyg7XJCKMqA7SLQ5feMOP5TYJotI4DZIbB3TRZOBFbbZpICLeuyh1yCTcCCeedTh4RYgaYKgEPQie/GwXefAmj9wILZUfidfy/hMFrfN2WMBBw4dGR23ZjnDc08nYFH/A6hKAP0uIjpp8+uHfNXEPH8cbFbAPhaBFjdjJb3TYgA70niNrNDoPWDjz+eJfBRH+1GkZoEeBgNK8wXwfgsGGhbb4Z6pv9A6DGgfnQR9IQvb5WPnDh2sKktq64G4S4AZX4EUZT8UJohfnxn7dhZH/sSMzWssO4AMM3rFLbJaFmdheP1uSMBVVStofbkRO8/vjh/fPxCmXmCSo0AHAYJvgcAkpvDu8bfDY4FtKzL+rGl8WE7fwCYU3f6Qk045wB43esgipKn18ihMw/Z+QPwayTAsRmt70W38weAzD6B5GYLAMDEaunfYagC4DCOt+KPd7c6bV171JI0O8PYt97ysokjdv69ZtWfua62Zu95DL4FQKeXgRSl/ygNwo921awZN3vQ6A+O/K3eFwHtId7gx01du2107bWT8Xj8T7KzBJV6BHAYn/t16hRd53fBiMvOEhSVx/V7vW0u+tX593Vr8p2RjqP/hsEXux1IUfqN6X8Fa1Puqh/1fm4/583jgM6dFtq3qpuWAwiWYO3MpbeWr5UdJYhUAXAIX7p3R0m2u+RVgE6XnSVIiIC6UQk3tw3Oq/M/2M2tqycS+G4AdW6FUpR+2EdEP5pdPfq+vN+/LhcBZqdAy9pswe1PMnD0TgeXn7tyBqVlJwka9QjgEMzukp+qzv/jmNGvDTf6acCdPwDcWTtmsePQWIAedSWVohwZg/lBy3JOm10zZu6A3r8uPg5w+bNZYPiMCq3j32WnCCI1AtDHZbM7RjuOeAuAvPM5A67iWAPlwwb063Gl8+9resvqTznEswj4lJuvqygAAOK/A9otc2rGLHP1dV0YCejYbvWc56EcjimgfUI9CvgoNQJwMGZyBN8J1fkfUccOG7aZd9/tSecPALPqxrxaVzNmHBjXANjt9usrkdXC4Ft2Va/9Z9c7f2DAIwFOltGxU3X+RxHX4Nwj7QSmgFK/jINccnv7lSCo7SL7oc862/7yrPPv6we73i41Y9q/MtOPQMg5qKIAsAC6B4j/ZE7tySnPW8tzJKDt/SzSyehsUjYwPHHJrVW/l50iKFQB0IuZLrmj/R317L//Bp2eQKyk34NIvnX+B5u2Z83JQhc/I+AKqBEvpX8EmB+GgZ/OqRq73teWcywCrG6BPauyHocqHMxYMz5VMbapiVTFBFUAHPD5mfu+JqD9QXaOMCmu1VFzYr9WSUrp/A82tXX1aAI3MfANqPe9cmhMjKc0nX5yR/WYt+Sl6H8R0PZhdHcpzRcx/cuzMyqekJ0jCNQd0X4C2o9lZwibdKvTnw1HpHf+ADCndsya2bWnX8EkziRgMdRJg8pH8FIhtHNm153+JamdP9DvOQF2mpHepzr/XDHxf6i5AD3ULwHAxbd3fIZIvCQ7RxiVDjZQNfywcyYD0fkfSs+KAfEfBLoM6nMQVUyMpwj42ay60/8mO8zHHGUkILnJgtqpND/E9OlnZ1S4P6EzZNQIAAAi52rZGcIq3eocbu1xYDt/oGfFwJ21Yy8nRzsVoNmA2iQkQkwQLRKgsbPrTv9SIDt/4IgjASyA7lZ1958vBibJzhAEkb/zOe92Li6n1E4AlbKzhFXNSQkU13yklgx0538oN+56e1A8pt3EoJsB1MrOo3iB2gE8YLD1PzPrPrFddpp+O8RIQLrNQduHpsRQodfewRVDo747YORHACqQ+ipU5z8g6baPHBQUus4fAH4z5Mw9s2vHNiUsZzgxTQPwnuxMimvWEOPmhGUfM6d2zPRQdf7AIUcCulvU0P8AVZZp7V+UHUI21092CRsGfU3NBxuYzD4BFgBp4ez8D/arIWd2AZgDYM60ve+cLTRtCgFXASiVHE3JTYaAvzBrc+fUjno+zO9JAD1FAPMtDSsssMPTMim1im2giOnr6JkQHFmRfgTQ1MTaysrUblYHyQxYzcj4U498uehLob/QHsLU1g8qiMwrGeIGMJ0lO49yRGtAWGjodN/MyjFtssO4jpkm/jH9x/bN1ldkRykAe5bcUjGkEK9Z/RXpEYDmyuQZBE11/i7Yt9F6G1RckB+k/bvAzQUwd9red85mTfs2gIkAjpObTNlvM4MWk4aH5lSPeVN2GE8RcWpmcl3E793cMuiimV2nLwXelR1ElkgXAIB+oRr+dweDL5SdwQ+z6894A8AbAL7/vdbVYzTmSUz0HQIfIztblDBoOwF/0AiLZ1WPbo7SXZwATVDdvzsIzoWIcAEQ6ffRpTNTjzF4ouwcBcKubK8oXdxEkZua3MSs7U2uPV9jMRFMlwN8guxMBYmxHkRPaYTF1dWjVzRR9LZz/WwTF8UrU50AdNlZCsSjS26tvFJ2CFkiPQLAEKMiXgO5ydhX2XkigMgdt7m/I3p5//9NvTX5zkhH6BeB+SIGLgNQJjdhWFEaEM0gWkqOWLp/9CXS4tWdJ0Gozt89dJrsBDJFtvdramJtRVWqC4wi2VkKB311ya0Vf5KdIkim7Hi9JF5U/BlifB7gz/QcNsXqAn5I5ID5HSJ6GcBf9e72/5153LhIr9Pu69I7kl9nJnWanWs4Pa69siyqhwNFtgC4ZE7yBNi0QXaOQlI2VF9bNTwxbd65RviXXXnkpj2ry2IGPiHA40ngfCacD6BKdi5JugC8BcZyaGi2NbH8nqoz9skOFVTXLDPPbt9i3de9x/6k7CyFRGjO8KXTa7bIziFDZAuAS2cmL2LQc7JzFJKSegPVJ8RAwPsCNE8n4777x1HhLcVyURO/aLS11J4JXT+bwWcw81gCnYHCKwr2gekdaPwugd51HHq9vm73O000Qe1ocwRXvcIVCWFdyYybAYxNbjDR1aK2AHYXf27JrVUvyE4hQ3TnABAq1QIAd7HT8wtl4BQC3ybYampsNhcTYeb94+KFvTwrT/s7wN6VBQdMb1t9vIAYy9DGEjCabf2fmHGaZgS7v2TbAAjvkWG/BmANQXvXZufdu2vHbpWdLUyuW5kd5Qi6EY7VyAfNIRGq73cdsxbZnWAjWwAI1spJVQCuEh9/ilbEwCRmTGpcYb4BYK4Rj/1u7jnU7X+6cJlVM2YLgC0AngKAySuyE4npMWgMzbBBMRNazAbFrJ5/1h1AFyDdAWkC5HKhwLYBFhrY0QGn5/8L2wBbMQjLAJtxCMcABIGJ/2PBuESkd1jLx9SnOdFRZX6ZBE1xBC461PdwJJ9Ue0vTuFx2BlkiWwAQovtH90rvCMAhv8Y4G8C9Vtb6RUOzuZCEmDXvgiI1ByNXgiDMGGDGcLSbQdIdkC4AMEjb33Ps//9EDGh84DUPHI8ueo4HYaEBIPD+zl7xztUruo8xWL++E9ZNxFR/pAez4gifMSVvFbIDyBLZAgDgsghPgfBEP4cnqwBMY027uWG5+QJrPHdENv7HpgkU7LHtEGJHV513QDUxa1tesS+EwBRm/hr3c10/C1UAuI05ujeD0S0ASLMPd5C9kh/KrZ7SQLiImC7aHLe3NzZnf2shfvei8bTHo3iKIt3kF7kKCeuaTSut6cTIecMoIoLavdRtmnX07ylM0S0AWHSqEQB3aXnfbPIxDPqpAevHjc3WE9AwVy0lVArJNcvMszUNUwBrEhjF+b4ORf4Ad/cxiQ7ZGWSJbAHARB2qe3GXCxenOIMnQmBiwwrrPW62FsA07l0wgZIuxFMUX930IpdlEta3mfFdAJ9w4zVJUzctbtMEqQIgajRBHawqAFeR4erF6TQC34a49W8NzebDjs53LTw38Y6bDSiKFxqXZ04FUUMG1hRmVLv52qSmdLiONUrJziBLZAsAIuxR3b+7dHcLgF7lAKboDk3pXUoosrGFCyZQxovGFCUfE1dzvLTd/AoJmsKEz8Gj54taTI0AuI/3yk4gS2QLAGZep6YAuMso8vYX2ruUkOLWzxqbswuEJn6z4LziTZ42qihH0Li8a5ig+CRK2jcDdKzX15RYsbpouS0W5/dlZ5AlslNKnp1R2QagVXaOQuJ1AXCQwQz6IQl9fcNy87nJK7ITJz6mDthRfMJMjSutixqbrceYYpsJfBvAx/rRtI+fsajY89RNVZE9fyKyIwAAAMY6EMbJjlEojCLf++ADSwnLjrHWT2627oubxv1zJ1CL30GUwjflda60TeubvNKazozRMjIYRZG9Z/PKOtkBZIr2u4lolewIhULTCXpcaoQTCXybFbe2NTZbjzWutA65laqi5OqaZebZDc3mvVbW2sGMeyGp8wcAPU7QvJlrE0lMWC07g0zRHgEAvwxgiuwUhSBeEZiLUuLAUsJm8+9EuNfqiD246FLqkh1MCY/effk1QdOZMF52noPFyzRkkupUIDcQ+CXZGWSKdAFAMF5g2Ay1I9CAJSoC+Qj+LGbca5RZv2xoNh/RwHPuH59Qoz7KYU1+JXOy5tC1nbCuI6ZaDuCVIVGhCgCXsAPjJdkhZIp0AfDsraU7L7mjfR0Yp8nOEnYBLQB6VQCYIkBTGpebzULjWfF4/E9zz6HIbgGq/EPvvvwsxHQ4dDkH/IYgURHtJ7fu4VXP31K2W3YKmSJdAAAABJaAVAEwEHosPMuTmDCemMabWXNnY3N2oc3i7oXnF2+RnUvx3+TXeAgs+5rNK6zvAhge8H7/gFixBj1GcCy1k8mAEC2VHUG2yJeSgvGw7AxhV1wXvjqSQEMZ9EOd9A0Nzdm/NK60LvrHmbhKIbtmmXl2Y7O5kCxrS88SPgyXnSknBBTXBnrELRRY8EOyM8gWviu3y5Z+v/KVS2a2rwNwquwsYVUS7ouRDtAXWfAXG1ZYH3Czdb9Oxn33j6M22cEU91z1ClckhHUlM24GMDbs984ldTo6d6kTtAdg7XMzql6XHUK2yI8AAAADD8rOEFZGMSFWUjBvo5MJfJtga3tjs7nw2hXmJ2UHUgbmupXZUQ3N5qy4Y21nxr0AxsrO5IZYiRaax27BxItkJwiCyI8AAABrzgMk9J8AiMnOEjal9QX5FipiYBIzJjU0m68wcDfM2GJ1/kA4TH6RixC3JhJwkyNwruw8XimpN9C+Rc1jzYMF4fxOdoggKJhbt4FYOr1mC6DmAuRKMwglg0I9/N8f5xKwkOLWzoZm897rVmZHyQ6kHFrjsszIxubsbRS3thCwECjczh8ASut1rw7gKnC8aMn3a7fKThEEBXn7lheHfg6dvwNVFPVb2RAdWnTOJ68CMMURdF3DcvMF1njuiGz8j00TSD2Ilah3CR8EpjD4awAKviLtRTqhdLCO1Hb1FsyB4wjtF7JDBIXq7PZb8oOK9wj0B9k5wkIzCKWDI1k/9p4/8NjmuL25sTl723WvdPtyEMxAORbDzjCsboFsykFmn0BmX8//troF7AyHZmnZpGYeNLnZ+uGmldaHLPg5Bk9EhDr/XqWDDbU1cC4Ijz7//YrInv7XVySv4IfjgH6qgb8CQO6u9iFQNkSHpkf9wsPDGPRDxzFubWy2noCGufPONZ4HkdxeVABml0C204GVZjiZno5f2P2LpekEo5igFxFixYR4uY5EiRaI24VrlplnaxqmANYkAMUIR73iGc0glA3RkdqmRgH6Ies49J+yQwSJKgAOsvTW8rUXz0zNJPAPZWcJMqOIUDZUzZc8SPzA+QMrrPe42VpgCmPuQxeQb8eM2iYj02ojm2JkOwRY5N8zCodhdjLQCaR7Xh2kERLlGuIVGkpqdOgJ/4q/xuVcDs36FjNuAnCmbw2HRPmQGLpbHNiZiFdDR/crdff/UaoA6KOopPNn2e7SbwIYITtLUFWNiIGifvN/eKcR+LaEZv1bQ7P5MAncPe+C+NteNCRsRiYp0N3qINvu7d7wLBiZdgeZdgeprRZiJRpK6nSU1OmeDUE3Ls+cCqIGwJrCjGpPGikqJwI+AAAQ/klEQVQEWs9nsuU9U3aSINsCO/1z2SGCRl3GD+HS21NfYeI/yc4RRMV1OmpGqickuSDCGwDmdiC2aPE4SufzGpNXZCcS02NAz7P8rj0OOnfZYEfuXR9phNJ6HWVDYweOg2biKxaMSyzO5/UmruZ4abv5FRI0BYTPQV2j+q3tQxPpNnVI0CERfWnJLRVPyo4RNAF4qhc8z86oeAKge2XnCBo9Tqg6Xg3954oZZzPj3jK2NjY2Z2+bvDI9Ip/XcbKM5CYLu9/KoGO7Jb3zB3pGBjp329j9ThrJTRYcM79Mjcu7hk1utn5YlrTXE9NjIFwE1fnnpOqEGIy4+pX1RcBdqvM/NPVuOYzPNnFRoiq1ghlqNzgAREDdqATiZapmdIEA4wXWeG7Xtvjji6+gI962nX0vx4bFu+ZaKTFZDODZvh9IA+Ll2mK7s2zSM9Moe6Tv7bOE76tQjyQHzOoS2LM2CwjZSYKC3ung8nNXzshv5K3QqQLgCD5/R+pUwfw6gDLZWWSrPD6GsiHq+uyB9Qy6L24a98+dQC19v3jJHcmLielOBk6REW4A1rHG33tuetXzfb8w5XWutE3rmwxMB2O0jHCFrHOnjfataodAAClinP3sjMoPZQcJKlUAHMWlM5MXMegpRHhpYOkgA1Uj1NC/x7IE+jM0zJ13XmzpZbM54dip/wFhKkL9OaW5le3lUxc3kfmPJXz4DoAS2ckKWXKjia69kZ4PYBHjy8/OqPyr7CBBFuILi38uvb3920xYhAjOmSiu0lB9ckLN+veRk+FVLe9lS2yTR8rO4gbNoA31oxJJo5jOkp0lSto+MJHeF8kigMHUsGRGxQOygwSduqz308Uz279HwJ2yc/gpUaGh9pQEKHJljzyZpIO29cGY4OcmTSfUnBhDoipym/VJwwJoXZdFtiNiEwIYM5bMqJwpO0YYqAIgB5fc0T4NjJmIwEhAokJH7ckxUOR3+/NPd6uD5AYTXFh9/wFEQNWIOErqVRHgFyEY+z6wkPF4n4iAYBD9cMktFb+UHSQs1NU9R5fMbL8KwHwU8NHBRdUaak5Ud/5+6ty1f+JWgXb+B6s4LobyoWpCqW8E0LbRRLq1oIsAkxgNz86ofEh2kDBRBUAeLpnZfhmARwGUy87itrIhBiqPi6l3ho86dliR28u94jgD5Wo7af8wkNxioWt3Qb7PUsw88bkZVUtkBwkbdZnP0+d+nTpF1/hRAJ+QncUVGmVrhsc6i+v1WtlRoqRrj43kpmgu2ao6IY5S9TjAV92tVjK50SlmwQnZWdxAhDchcIVa6pcfNcibp+e/X/G+rlecC8Zs2VkGihlryKGzHbNoMAvxZTCWIhKD0XKlkwLtm6PZ+QM9S9UiOkvdd0R4gwjXVA4rGWTbOAMgT86n8BMDi1KiYrzq/POnRgBccPEdqS+DeTYBw2VnyVEWwK/M9or/eqmJMgd/4eplmVMMjRoZdD2AGjnxCpfVJbB3bRYcsQnafZEG1I9OIFai7kU8kALwCBPfuWBc4t2Dv3De7VxcTh0/Afj7CN8eJ5tANFVt7ztwqgBwSc8HKvVDAD8CEPzhNaIXdY1ufmZa+ZojfdvkF7lIS1hXMONWFMrjDsmEYOxdlVXHt+5nFBEGjUmoFSfueY8JvynJxu6/ewJ1HukbL57VfrImMIeBS/0KNwAWGPeYiey/vfS9QUf871L6R33iXHbJr1KnQecmABMRyEcs9LYG52d/vbX68Vx/8qCd3CYBKHY/WzTsW2+iu7BnZOesuEZHzUlhuxENFJNAT/TuJJnrD18yM/kNAP8B0FgPsg2UQ8BjtqCm579f8b7sMIVEFQAeuWhmcqTGNB2EGxCMEYG3mPi/n5te+XsQDejWc/KLXIWEdQ2A6cQ4waV8kdDV0rPWX/m4qpFxlNapSYG5oe0E8Vt24nfN/zTtHdBLMdMlMzu+COJ/A/Apd/INiMXAI+TQfy/5QcV7ssMUIlUAeOySX7cex6RPIo0mgXGaz80nwbRY6Fi4dHrFcrdfvM9pbl8DoK7eRyBsxp53snBsNfR/KJpBGHRGArqhLktHceA0yRHZ+B+bJpDra/suvT11AUhczaBvAKhy+/WPYi0z/84wnIXPTKvd5nPbkaI+aT76/B3t/ySAb4FxCYDR8Ob3vxvASwD/3myvfLLv5D6vXL2i+xiD9esZdBOAej/aDJvkBhNdLWro/0hK6g1Un6D2BziMJICFJMSseRcUbfCjwc82cVGiov3LgujrBHwWwCAPmmGAVxNoiWB++LkZVa970IZyCKoAkORzd3QO1oUzgTV8hhhjAJyG3DvObgDvA1gHwgqQ9sKSaWWrBzrEPxATV3O8tN38CgmaAsJFsnIEjdnRM+tfOQoC6kclEC8L4PQZSYjwBoC5HYgtWjxO4rn2zHTRzK7TCc6FIIwj4BSATwUo1/lAe9EzUXE1gV9yYLz0/C1lu72IrByZKgAC5PK7k9WWSadA0CAmLiNwOUOr0kiQYOokpk7SRCcxt2oONj79/aotMjv7o7luZXaUI+hGAI0AymTnkWnv2izMqB3KkqdEuYa6UUGYNiNVhoDFRJh5/7j4m7LDHBYzfeHXyeOFjhOYqJaFVsbEZRpxmWCNCSLJoA5i6oTGe2Jxfv+pm6r2yY6t9FAFgOK5q17hioSwrmTGzQCCOMvYU9mUg5b31MS/XNSPSiBeHr1RAALeF6B5Ohn33T+O2mTnUQqbKgAUX12zzDxb1zCdgStRwAcqHazlPRPZlHr2n4uiSh21p0ZmWaAD8DOkabPmnWs8H+RRPaWwqAJAkWLyazwEln0Ngb+L8O2g2G9Wl8Ce1erZfz7qxyQQLy3cUQAG79SAhWw7d83/TMlW2XmU6FEFgCJV71JCFmI6QJejwN6TyY0muvaqu/98lA4yUDWi8AaJiNEsNJ4Vj8f/NPcciu5hEIp0BXWxVcLt2hWZk5jpOgZdByD0pxKyAHa9mYFw1IhuPkgnDD2rCFQYV6kUgEcE8+wHzk+slh1GUQBVACgBNPVpTnRUmV/WBE1nwnjZefKVbnPQ9qGa/DcQNSfHUVwd6v2l/k6Ee62O2IOLLqUu2WEU5WCqAFAC7aDzB74DoER2nly0vp9FJqmW/g1EcY2GmpNCtyQwS6A/57svv6L4RRUASihMeZ0rbdP6JgPTwRgtO89RCWDH3zNgoYb/ByJkjwHWM+i+uGncP3cCtcgOoyhHE46PlaLs1+f8ga8CMGRnOpRsp0DLGjX73w31owO9M+CBffm7tsUfX3wFqRmfSmioAkAJrcblXcMExScRcDPAx8rOc7COHRZS21w/oyWSKo41UD4scKsBdhN4gdDEbxacV7xJdhhFyYcqAJTQ63P+wOcQgPe12vzHPYlKHXUB2RQoMPvyK4oLpF8oFcVNjcszp4KoAaApDFTLyrHz7xkIdeyvK7QYYegni2RG6ADwMAncPe+C+NsygyiKm1QBoBSkxuVcDs36FjNuAnCmn20Lm7Hz776cwhwZQ88qgmb4frlax6D5pjDmPnQBqQNslIKjCgCl4B20lHASgFyPLs2Z2SmwV00AdJWP2wKbBHoCGuaqffmVQqcKACUyJjXzIB12A4FvBDDCq3a6WhwkN6gNgNxUPTKOkjovNwSiHQSxSNOdO397bsk2DxtSlMBQBYASOX2WEn4NgKs9i1oB4L7K4wyUDXV9JcCBJXwjsvE/Nk0g9UdTIkUVAEqkXdOcOVEHXc+gawHUufGaqW02OnaoM17cVD4shopjXdvyoR3Ao3B41vxPJ9a49aKKEjaqAFAU/OP8gf1LCS8ayGslN1no2qNuJt1UOthA1fCBjQD0LuEz4rHfzT2Hut1JpijhpQoARemjYaV5FgRuAOMqEEpz/fl9G0x0t6g9ANxUWqejamReewFkCPQXJtwxf1xshdu5FCXMVAGgKIdx1StckRDWlcyYCuD0/v5c23oT6VZVALipuFZHzYk5FQAfMOh+YRi/XfgpavUql6KEmSoAFKUfGpdb54MwjcH/AuCIY9HJDSa61AiAq0rqDVSfcNRHAD2T+ljMXnB+4km1hE9RjkwVAIqSgykv81BTt68m8E0Ajj/U97RvsdC5S80BcFPZEAOVxx+mAGDeRYQHCOKe+8cXb/Y3maKElyoAFCUPEx9jvXRo9gtE2rS+5w90bLeR2q5WAbip/JgYKo756CqA/ZP6Zhvx2MNzzyH1C1eUHKkCQFEG6OplmVMMjRoZdD2Ams6dNtq3qv7ITZXHx1A2xACAFIBHmPjOBeMS70qOpSihpgoARXHJ5Be5SEtYV3TutZuSG6wTZOcpJFUj49tK6vVflWRj9989gTpl51GUQqAKAEVx2UW3d47V/l979xMiZR3HcfzzfWZXw5ydVaFDhwwC06KOBWZRm25l2TkIb53KZv+keIhgDTop7SYdiqQgJegUFLS747ZJ1EGli0WaUrimBFqus5q16zzz7RIEhWU2z3xnnnm/zsvueweW58Nv9nnG0iPRHXlSKCR3jpeLPLQHaKCmfLoG0ElqczeekMRtAI2TSku/i44A8oYBADTYgRH7Ta5T0R05cnK8bHy8ItBgDAAgC6ZD0Qm5YToYnQDkEQMAyICbfxrdkB82HV0A5BEDAMiCcdFqmEKd1xLIAHcBABnpH63O6CpPC8S1cWlm/1Dp1ugOII84AQAyYtJH0Q3tzqQPohuAvGIAABlx097ohnZncl5DICO8BQBkqH+selSu1dEdbepoZah0R3QEkFecAABZct8XndC23N+NTgDyjAEAZKlWeEvS5eiMNnRZaeHt6AggzxgAQIYq24pn5doT3dFuTHqjsq14NroDyDMGAJCxQldtp6SF6I42Mn/Fu1+NjgDyjgEAZGy8vOK0ZO9Ed7QLk/ZMDy85E90B5B0DAGiCtFsvSvo5uqMNnE8KyY7oCKATMACAJvhkS8/Pkr8U3dHqXLZ9vFw8F90BdAIGANAka6ulNyU+2e5qXDp8X7XIf/4DTcKDgIAmenTs/N11FQ7KdUN0S2vxX5UU7qkMFL+OLgE6BScAQBNNDC4/4vLB6I6WY8nzXPyB5uIEAAjQP1rdJ+np6I4W8X5lqPRUdATQaTgBAAIUCrVn3fVNdEc8/2ph0fwz0RVAJ2IAAAHGyyvmUnX3uzQT3RLHTquePn7guZsuRZcAnYgBAASZHl5yRok2SOq4R96a9JNSbai8sOKH6BagUzEAgED7B0onzLVJ0mx0SxPNmmljZWvPsegQoJMxAIBgk8OlQ+bJ/ZKdjm5pgh+tXn9oYrB0ODoE6HTcBQC0iI27ZlfWCsmkpNujWzJhOla39JGpgeWnolMAcAIAtIyPty6bWUhtnaRKdEvDmSbSLlvHxR9oHZwAAK3G3TaMzpXNtFNSd3TO/1ST9Mraas/LIyNWj44B8CcGANCi+scuPiCv75V0S3TLdTpZT2zz1EDP59EhAP6OtwCAFlUZLH62eMkvayTtkDQf3fMfXJFr98Ki+bu4+AOtixMAoA2sH724JpG/LnlfdMu/mErMtkwM9nwbHQLgnzEAgDay/rW5dUnq22V6IrrlL74w+cjkUO9UdAiAa8MAANpQ/1j1XtVtm8w3SVoUlLEg2YfmvnNyuHQoqAHAdWIAAG3swdHZ3sWWPOmuzZIeVnP+pr90196uruS98XLxXBN+HoAMMACAnNi4a3ZlmhT6XN4nU5+kmxvznf2My6Ylm/akNs29/EA+MACAnHps94Xb6qmtlttqN61yaZVJyyQvSuqVtPSPL70k6YJkF12aNem4uY7L/FgqPzo11Pt93G8BICu/A47RX/tyny3rAAAAAElFTkSuQmCC;" vertex="1" parent="bxsf5tEdpp9Sxr3jbm2m-1">
          <mxGeometry x="10" y="10" width="80" height="80" as="geometry" />
        </mxCell>
        <mxCell id="bxsf5tEdpp9Sxr3jbm2m-3" value="" style="aspect=fixed;sketch=0;html=1;dashed=0;whitespace=wrap;fillColor=#2875E2;strokeColor=#ffffff;points=[[0.005,0.63,0],[0.1,0.2,0],[0.9,0.2,0],[0.5,0,0],[0.995,0.63,0],[0.72,0.99,0],[0.5,1,0],[0.28,0.99,0]];shape=mxgraph.kubernetes.icon2;prIcon=pod" vertex="1" parent="bxsf5tEdpp9Sxr3jbm2m-1">
          <mxGeometry x="604" y="160" width="93.75" height="90" as="geometry" />
        </mxCell>
        <mxCell id="bxsf5tEdpp9Sxr3jbm2m-34" style="edgeStyle=orthogonalEdgeStyle;rounded=0;orthogonalLoop=1;jettySize=auto;html=1;exitX=0.995;exitY=0.63;exitDx=0;exitDy=0;exitPerimeter=0;" edge="1" parent="bxsf5tEdpp9Sxr3jbm2m-1" source="bxsf5tEdpp9Sxr3jbm2m-5" target="bxsf5tEdpp9Sxr3jbm2m-17">
          <mxGeometry relative="1" as="geometry" />
        </mxCell>
        <mxCell id="bxsf5tEdpp9Sxr3jbm2m-5" value="" style="aspect=fixed;sketch=0;html=1;dashed=0;whitespace=wrap;fillColor=#2875E2;strokeColor=#ffffff;points=[[0.005,0.63,0],[0.1,0.2,0],[0.9,0.2,0],[0.5,0,0],[0.995,0.63,0],[0.72,0.99,0],[0.5,1,0],[0.28,0.99,0]];shape=mxgraph.kubernetes.icon2;prIcon=pod" vertex="1" parent="bxsf5tEdpp9Sxr3jbm2m-1">
          <mxGeometry x="674" y="160" width="92.71" height="89" as="geometry" />
        </mxCell>
        <mxCell id="bxsf5tEdpp9Sxr3jbm2m-6" value="" style="aspect=fixed;sketch=0;html=1;dashed=0;whitespace=wrap;fillColor=#2875E2;strokeColor=#ffffff;points=[[0.005,0.63,0],[0.1,0.2,0],[0.9,0.2,0],[0.5,0,0],[0.995,0.63,0],[0.72,0.99,0],[0.5,1,0],[0.28,0.99,0]];shape=mxgraph.kubernetes.icon2;prIcon=pod" vertex="1" parent="bxsf5tEdpp9Sxr3jbm2m-1">
          <mxGeometry x="644" y="180" width="92.71" height="89" as="geometry" />
        </mxCell>
        <mxCell id="bxsf5tEdpp9Sxr3jbm2m-10" value="" style="aspect=fixed;sketch=0;html=1;dashed=0;whitespace=wrap;fillColor=#2875E2;strokeColor=#ffffff;points=[[0.005,0.63,0],[0.1,0.2,0],[0.9,0.2,0],[0.5,0,0],[0.995,0.63,0],[0.72,0.99,0],[0.5,1,0],[0.28,0.99,0]];shape=mxgraph.kubernetes.icon2;prIcon=pod" vertex="1" parent="bxsf5tEdpp9Sxr3jbm2m-1">
          <mxGeometry x="609" y="404" width="91" height="87.36" as="geometry" />
        </mxCell>
        <mxCell id="bxsf5tEdpp9Sxr3jbm2m-11" value="" style="aspect=fixed;sketch=0;html=1;dashed=0;whitespace=wrap;fillColor=#2875E2;strokeColor=#ffffff;points=[[0.005,0.63,0],[0.1,0.2,0],[0.9,0.2,0],[0.5,0,0],[0.995,0.63,0],[0.72,0.99,0],[0.5,1,0],[0.28,0.99,0]];shape=mxgraph.kubernetes.icon2;prIcon=pod" vertex="1" parent="bxsf5tEdpp9Sxr3jbm2m-1">
          <mxGeometry x="679" y="404" width="92.71" height="89" as="geometry" />
        </mxCell>
        <mxCell id="bxsf5tEdpp9Sxr3jbm2m-12" value="" style="aspect=fixed;sketch=0;html=1;dashed=0;whitespace=wrap;fillColor=#2875E2;strokeColor=#ffffff;points=[[0.005,0.63,0],[0.1,0.2,0],[0.9,0.2,0],[0.5,0,0],[0.995,0.63,0],[0.72,0.99,0],[0.5,1,0],[0.28,0.99,0]];shape=mxgraph.kubernetes.icon2;prIcon=pod" vertex="1" parent="bxsf5tEdpp9Sxr3jbm2m-1">
          <mxGeometry x="649" y="424" width="92.71" height="89" as="geometry" />
        </mxCell>
        <mxCell id="bxsf5tEdpp9Sxr3jbm2m-13" value="&lt;font style=&quot;font-size: 18px;&quot;&gt;Python App Deployment&lt;/font&gt;" style="text;html=1;align=center;verticalAlign=middle;whiteSpace=wrap;rounded=0;" vertex="1" parent="bxsf5tEdpp9Sxr3jbm2m-1">
          <mxGeometry x="640.36" y="279.5" width="100" height="30" as="geometry" />
        </mxCell>
        <mxCell id="bxsf5tEdpp9Sxr3jbm2m-14" value="&lt;font style=&quot;font-size: 18px;&quot;&gt;NodeJS App Deployment&lt;/font&gt;" style="text;html=1;align=center;verticalAlign=middle;whiteSpace=wrap;rounded=0;" vertex="1" parent="bxsf5tEdpp9Sxr3jbm2m-1">
          <mxGeometry x="623.0300000000001" y="525" width="144.65" height="30" as="geometry" />
        </mxCell>
        <mxCell id="bxsf5tEdpp9Sxr3jbm2m-15" value="" style="aspect=fixed;sketch=0;html=1;dashed=0;whitespace=wrap;fillColor=#2875E2;strokeColor=#ffffff;points=[[0.005,0.63,0],[0.1,0.2,0],[0.9,0.2,0],[0.5,0,0],[0.995,0.63,0],[0.72,0.99,0],[0.5,1,0],[0.28,0.99,0]];shape=mxgraph.kubernetes.icon2;prIcon=svc" vertex="1" parent="bxsf5tEdpp9Sxr3jbm2m-1">
          <mxGeometry x="350" y="166.3" width="83.75" height="80.4" as="geometry" />
        </mxCell>
        <mxCell id="bxsf5tEdpp9Sxr3jbm2m-16" value="" style="aspect=fixed;sketch=0;html=1;dashed=0;whitespace=wrap;fillColor=#2875E2;strokeColor=#ffffff;points=[[0.005,0.63,0],[0.1,0.2,0],[0.9,0.2,0],[0.5,0,0],[0.995,0.63,0],[0.72,0.99,0],[0.5,1,0],[0.28,0.99,0]];shape=mxgraph.kubernetes.icon2;prIcon=svc" vertex="1" parent="bxsf5tEdpp9Sxr3jbm2m-1">
          <mxGeometry x="350" y="408.6" width="83.75" height="80.4" as="geometry" />
        </mxCell>
        <mxCell id="bxsf5tEdpp9Sxr3jbm2m-17" value="" style="aspect=fixed;sketch=0;html=1;dashed=0;whitespace=wrap;fillColor=#2875E2;strokeColor=#ffffff;points=[[0.005,0.63,0],[0.1,0.2,0],[0.9,0.2,0],[0.5,0,0],[0.995,0.63,0],[0.72,0.99,0],[0.5,1,0],[0.28,0.99,0]];shape=mxgraph.kubernetes.icon2;prIcon=svc" vertex="1" parent="bxsf5tEdpp9Sxr3jbm2m-1">
          <mxGeometry x="978.12" y="410" width="83.75" height="80.4" as="geometry" />
        </mxCell>
        <mxCell id="bxsf5tEdpp9Sxr3jbm2m-20" value="" style="group" vertex="1" connectable="0" parent="bxsf5tEdpp9Sxr3jbm2m-1">
          <mxGeometry x="972.99" y="550" width="130" height="119" as="geometry" />
        </mxCell>
        <mxCell id="bxsf5tEdpp9Sxr3jbm2m-18" value="" style="aspect=fixed;sketch=0;html=1;dashed=0;whitespace=wrap;fillColor=#2875E2;strokeColor=#ffffff;points=[[0.005,0.63,0],[0.1,0.2,0],[0.9,0.2,0],[0.5,0,0],[0.995,0.63,0],[0.72,0.99,0],[0.5,1,0],[0.28,0.99,0]];shape=mxgraph.kubernetes.icon2;prIcon=pod" vertex="1" parent="bxsf5tEdpp9Sxr3jbm2m-20">
          <mxGeometry width="92.71" height="89" as="geometry" />
        </mxCell>
        <mxCell id="bxsf5tEdpp9Sxr3jbm2m-19" value="&lt;font style=&quot;font-size: 18px;&quot;&gt;Postgre SQL Deployment&lt;/font&gt;" style="text;html=1;align=center;verticalAlign=middle;whiteSpace=wrap;rounded=0;" vertex="1" parent="bxsf5tEdpp9Sxr3jbm2m-20">
          <mxGeometry x="-18.65" y="100" width="130" height="30" as="geometry" />
        </mxCell>
        <mxCell id="bxsf5tEdpp9Sxr3jbm2m-24" value="&lt;font style=&quot;font-size: 18px;&quot;&gt;Postgre SQL service&lt;/font&gt;" style="text;html=1;align=center;verticalAlign=middle;whiteSpace=wrap;rounded=0;" vertex="1" parent="bxsf5tEdpp9Sxr3jbm2m-1">
          <mxGeometry x="970" y="500" width="100" height="30" as="geometry" />
        </mxCell>
        <mxCell id="bxsf5tEdpp9Sxr3jbm2m-25" style="edgeStyle=orthogonalEdgeStyle;rounded=0;orthogonalLoop=1;jettySize=auto;html=1;exitX=0.5;exitY=1;exitDx=0;exitDy=0;exitPerimeter=0;entryX=0.5;entryY=0;entryDx=0;entryDy=0;entryPerimeter=0;" edge="1" parent="bxsf5tEdpp9Sxr3jbm2m-1" source="bxsf5tEdpp9Sxr3jbm2m-17" target="bxsf5tEdpp9Sxr3jbm2m-18">
          <mxGeometry relative="1" as="geometry" />
        </mxCell>
        <mxCell id="bxsf5tEdpp9Sxr3jbm2m-26" value="" style="aspect=fixed;sketch=0;html=1;dashed=0;whitespace=wrap;fillColor=#2875E2;strokeColor=#ffffff;points=[[0.005,0.63,0],[0.1,0.2,0],[0.9,0.2,0],[0.5,0,0],[0.995,0.63,0],[0.72,0.99,0],[0.5,1,0],[0.28,0.99,0]];shape=mxgraph.kubernetes.icon2;prIcon=svc" vertex="1" parent="bxsf5tEdpp9Sxr3jbm2m-1">
          <mxGeometry x="-60" y="250" width="115.63" height="111" as="geometry" />
        </mxCell>
        <mxCell id="bxsf5tEdpp9Sxr3jbm2m-27" value="&lt;font style=&quot;font-size: 18px;&quot;&gt;Python App Service&lt;/font&gt;" style="text;html=1;align=center;verticalAlign=middle;whiteSpace=wrap;rounded=0;" vertex="1" parent="bxsf5tEdpp9Sxr3jbm2m-1">
          <mxGeometry x="340" y="251.60000000000002" width="100" height="30" as="geometry" />
        </mxCell>
        <mxCell id="bxsf5tEdpp9Sxr3jbm2m-28" value="&lt;font style=&quot;font-size: 18px;&quot;&gt;NodeJS App Service&lt;/font&gt;" style="text;html=1;align=center;verticalAlign=middle;whiteSpace=wrap;rounded=0;" vertex="1" parent="bxsf5tEdpp9Sxr3jbm2m-1">
          <mxGeometry x="342.88" y="503" width="100" height="30" as="geometry" />
        </mxCell>
        <mxCell id="bxsf5tEdpp9Sxr3jbm2m-29" style="edgeStyle=orthogonalEdgeStyle;rounded=0;orthogonalLoop=1;jettySize=auto;html=1;exitX=0.995;exitY=0.63;exitDx=0;exitDy=0;exitPerimeter=0;entryX=0.005;entryY=0.63;entryDx=0;entryDy=0;entryPerimeter=0;" edge="1" parent="bxsf5tEdpp9Sxr3jbm2m-1" source="bxsf5tEdpp9Sxr3jbm2m-15" target="bxsf5tEdpp9Sxr3jbm2m-3">
          <mxGeometry relative="1" as="geometry" />
        </mxCell>
        <mxCell id="bxsf5tEdpp9Sxr3jbm2m-30" style="edgeStyle=orthogonalEdgeStyle;rounded=0;orthogonalLoop=1;jettySize=auto;html=1;exitX=0.995;exitY=0.63;exitDx=0;exitDy=0;exitPerimeter=0;entryX=0.005;entryY=0.63;entryDx=0;entryDy=0;entryPerimeter=0;" edge="1" parent="bxsf5tEdpp9Sxr3jbm2m-1" source="bxsf5tEdpp9Sxr3jbm2m-16" target="bxsf5tEdpp9Sxr3jbm2m-10">
          <mxGeometry relative="1" as="geometry" />
        </mxCell>
        <mxCell id="bxsf5tEdpp9Sxr3jbm2m-31" value="" style="aspect=fixed;sketch=0;html=1;dashed=0;whitespace=wrap;fillColor=#2875E2;strokeColor=#ffffff;points=[[0.005,0.63,0],[0.1,0.2,0],[0.9,0.2,0],[0.5,0,0],[0.995,0.63,0],[0.72,0.99,0],[0.5,1,0],[0.28,0.99,0]];shape=mxgraph.kubernetes.icon2;kubernetesLabel=1;prIcon=secret" vertex="1" parent="bxsf5tEdpp9Sxr3jbm2m-1">
          <mxGeometry x="750" y="600.4" width="89.52" height="85.94" as="geometry" />
        </mxCell>
        <mxCell id="bxsf5tEdpp9Sxr3jbm2m-32" style="edgeStyle=orthogonalEdgeStyle;rounded=0;orthogonalLoop=1;jettySize=auto;html=1;exitX=0.995;exitY=0.63;exitDx=0;exitDy=0;exitPerimeter=0;entryX=0.005;entryY=0.63;entryDx=0;entryDy=0;entryPerimeter=0;" edge="1" parent="bxsf5tEdpp9Sxr3jbm2m-1" source="bxsf5tEdpp9Sxr3jbm2m-31" target="bxsf5tEdpp9Sxr3jbm2m-18">
          <mxGeometry relative="1" as="geometry" />
        </mxCell>
        <mxCell id="bxsf5tEdpp9Sxr3jbm2m-35" style="edgeStyle=orthogonalEdgeStyle;rounded=0;orthogonalLoop=1;jettySize=auto;html=1;exitX=0.995;exitY=0.63;exitDx=0;exitDy=0;exitPerimeter=0;entryX=0.005;entryY=0.63;entryDx=0;entryDy=0;entryPerimeter=0;" edge="1" parent="bxsf5tEdpp9Sxr3jbm2m-1" source="bxsf5tEdpp9Sxr3jbm2m-11" target="bxsf5tEdpp9Sxr3jbm2m-17">
          <mxGeometry relative="1" as="geometry" />
        </mxCell>
        <mxCell id="bxsf5tEdpp9Sxr3jbm2m-36" value="" style="group" vertex="1" connectable="0" parent="bxsf5tEdpp9Sxr3jbm2m-1">
          <mxGeometry x="140" y="264" width="100" height="119" as="geometry" />
        </mxCell>
        <mxCell id="bxsf5tEdpp9Sxr3jbm2m-37" value="" style="aspect=fixed;sketch=0;html=1;dashed=0;whitespace=wrap;fillColor=#2875E2;strokeColor=#ffffff;points=[[0.005,0.63,0],[0.1,0.2,0],[0.9,0.2,0],[0.5,0,0],[0.995,0.63,0],[0.72,0.99,0],[0.5,1,0],[0.28,0.99,0]];shape=mxgraph.kubernetes.icon2;prIcon=pod" vertex="1" parent="bxsf5tEdpp9Sxr3jbm2m-36">
          <mxGeometry width="92.71" height="89" as="geometry" />
        </mxCell>
        <mxCell id="bxsf5tEdpp9Sxr3jbm2m-39" style="edgeStyle=orthogonalEdgeStyle;rounded=0;orthogonalLoop=1;jettySize=auto;html=1;exitX=0.995;exitY=0.63;exitDx=0;exitDy=0;exitPerimeter=0;entryX=0.005;entryY=0.63;entryDx=0;entryDy=0;entryPerimeter=0;" edge="1" parent="bxsf5tEdpp9Sxr3jbm2m-1" source="bxsf5tEdpp9Sxr3jbm2m-26" target="bxsf5tEdpp9Sxr3jbm2m-37">
          <mxGeometry relative="1" as="geometry" />
        </mxCell>
        <mxCell id="bxsf5tEdpp9Sxr3jbm2m-40" style="edgeStyle=orthogonalEdgeStyle;rounded=0;orthogonalLoop=1;jettySize=auto;html=1;exitX=0.995;exitY=0.63;exitDx=0;exitDy=0;exitPerimeter=0;entryX=0.005;entryY=0.63;entryDx=0;entryDy=0;entryPerimeter=0;" edge="1" parent="bxsf5tEdpp9Sxr3jbm2m-1" source="bxsf5tEdpp9Sxr3jbm2m-37" target="bxsf5tEdpp9Sxr3jbm2m-15">
          <mxGeometry relative="1" as="geometry" />
        </mxCell>
        <mxCell id="bxsf5tEdpp9Sxr3jbm2m-41" style="edgeStyle=orthogonalEdgeStyle;rounded=0;orthogonalLoop=1;jettySize=auto;html=1;exitX=0.995;exitY=0.63;exitDx=0;exitDy=0;exitPerimeter=0;entryX=0.005;entryY=0.63;entryDx=0;entryDy=0;entryPerimeter=0;" edge="1" parent="bxsf5tEdpp9Sxr3jbm2m-1" source="bxsf5tEdpp9Sxr3jbm2m-37" target="bxsf5tEdpp9Sxr3jbm2m-16">
          <mxGeometry relative="1" as="geometry" />
        </mxCell>
        <mxCell id="bxsf5tEdpp9Sxr3jbm2m-38" value="&lt;font style=&quot;font-size: 18px;&quot;&gt;Nginx as Reverse Proxy&lt;/font&gt;" style="text;html=1;align=center;verticalAlign=middle;whiteSpace=wrap;rounded=0;" vertex="1" parent="bxsf5tEdpp9Sxr3jbm2m-1">
          <mxGeometry x="120" y="361" width="140" height="30" as="geometry" />
        </mxCell>
        <mxCell id="bxsf5tEdpp9Sxr3jbm2m-43" value="&lt;span style=&quot;font-size: 18px;&quot;&gt;Nginx Service as a LoadBalancer&lt;/span&gt;" style="text;html=1;align=center;verticalAlign=middle;whiteSpace=wrap;rounded=0;" vertex="1" parent="bxsf5tEdpp9Sxr3jbm2m-1">
          <mxGeometry x="-70" y="374" width="140" height="30" as="geometry" />
        </mxCell>
        <mxCell id="bxsf5tEdpp9Sxr3jbm2m-44" value="" style="aspect=fixed;sketch=0;html=1;dashed=0;whitespace=wrap;fillColor=#2875E2;strokeColor=#ffffff;points=[[0.005,0.63,0],[0.1,0.2,0],[0.9,0.2,0],[0.5,0,0],[0.995,0.63,0],[0.72,0.99,0],[0.5,1,0],[0.28,0.99,0]];shape=mxgraph.kubernetes.icon2;prIcon=pvc" vertex="1" parent="bxsf5tEdpp9Sxr3jbm2m-1">
          <mxGeometry x="1141" y="552" width="90" height="86.4" as="geometry" />
        </mxCell>
        <mxCell id="bxsf5tEdpp9Sxr3jbm2m-45" value="&lt;font style=&quot;font-size: 18px;&quot;&gt;Persistence Volume&lt;/font&gt;" style="text;html=1;align=center;verticalAlign=middle;whiteSpace=wrap;rounded=0;" vertex="1" parent="bxsf5tEdpp9Sxr3jbm2m-1">
          <mxGeometry x="1136" y="651.4" width="100" height="30" as="geometry" />
        </mxCell>
        <mxCell id="bxsf5tEdpp9Sxr3jbm2m-52" style="edgeStyle=orthogonalEdgeStyle;rounded=0;orthogonalLoop=1;jettySize=auto;html=1;exitX=0.005;exitY=0.63;exitDx=0;exitDy=0;exitPerimeter=0;entryX=0.995;entryY=0.63;entryDx=0;entryDy=0;entryPerimeter=0;" edge="1" parent="bxsf5tEdpp9Sxr3jbm2m-1" source="bxsf5tEdpp9Sxr3jbm2m-44" target="bxsf5tEdpp9Sxr3jbm2m-18">
          <mxGeometry relative="1" as="geometry" />
        </mxCell>
        <mxCell id="bxsf5tEdpp9Sxr3jbm2m-42" value="&lt;font style=&quot;font-size: 18px;&quot;&gt;Incoming Request&lt;/font&gt;" style="shape=flexArrow;endArrow=classic;html=1;rounded=0;entryX=0.005;entryY=0.63;entryDx=0;entryDy=0;entryPerimeter=0;" edge="1" parent="1" target="bxsf5tEdpp9Sxr3jbm2m-26">
          <mxGeometry width="50" height="50" relative="1" as="geometry">
            <mxPoint x="50" y="330" as="sourcePoint" />
            <mxPoint x="880" y="330" as="targetPoint" />
          </mxGeometry>
        </mxCell>
      </root>
    </mxGraphModel>
  </diagram>
</mxfile>
